<svg id="e5T1vAUpIyw1" xmlns="http://www.w3.org/2000/svg" xmlns:xlink="http://www.w3.org/1999/xlink" viewBox="0 0 40 40" shape-rendering="geometricPrecision" text-rendering="geometricPrecision"><path d="M39.43,47.96h-5.3057l-3.4195-9.1188c-.1278-.3375-.2614-.9625-.4008-1.875h-.0566L29.79,38.9225L26.3575,47.96h-5.3275l6.325-14-5.7674-14h5.432l2.8314,8.3937c.2207.6667.4182,1.4542.5924,2.3625h.0567l.6142-2.4375L34.2332,19.96h4.918L33.3097,33.8412L39.43,47.96Z" transform="translate(-20.49-13.96)" fill="#eee8d5" stroke-width="0.2" stroke-linejoin="round"/><path d="M60.03929,38.17811l-5.1102,13.716192c-1.2192,3.30035-3.0545,4.950475-5.5061,4.950475-.9341,0-1.702-.168179-2.3037-.504537v-3.027022c.5067.336358,1.0569.504537,1.6506.504537.979,0,1.6612-.474267,2.0465-1.422899l.6491-1.572558-5.1062-12.644188h4.3265l2.3314,7.717411c.1451.480838.2586,1.04711.3404,1.698717h.0475l.4038-1.671135l2.3552-7.744993h3.8752Z" transform="matrix(1.5 0 0 1.5-50.598935-51.267164)" fill="#eee8d5" stroke-width="0.2" stroke-linejoin="round"/></svg>
