<?xml version="1.0" encoding="UTF-8" standalone="no"?>
<!-- Uploaded to: SVG Repo, www.svgrepo.com, Generator: SVG Repo Mixer Tools -->

<svg
   fill="#2662ED"
   version="1.1"
   id="Capa_1"
   width="800px"
   height="800px"
   viewBox="0 0 573.888 573.888"
   xml:space="preserve"
   sodipodi:docname="access_point.svg"
   inkscape:version="1.4.2 (f4327f4, 2025-05-13)"
   xmlns:inkscape="http://www.inkscape.org/namespaces/inkscape"
   xmlns:sodipodi="http://sodipodi.sourceforge.net/DTD/sodipodi-0.dtd"
   xmlns="http://www.w3.org/2000/svg"
   xmlns:svg="http://www.w3.org/2000/svg"><defs
   id="defs4" /><sodipodi:namedview
   id="namedview4"
   pagecolor="#ffffff"
   bordercolor="#000000"
   borderopacity="0.25"
   inkscape:showpageshadow="2"
   inkscape:pageopacity="0.0"
   inkscape:pagecheckerboard="0"
   inkscape:deskcolor="#d1d1d1"
   inkscape:zoom="1.46875"
   inkscape:cx="399.65957"
   inkscape:cy="400"
   inkscape:window-width="2560"
   inkscape:window-height="1377"
   inkscape:window-x="-8"
   inkscape:window-y="-8"
   inkscape:window-maximized="1"
   inkscape:current-layer="g2" />
<g
   id="g4">
	<g
   id="g3">
		<g
   id="g2">
			<circle
   cx="286.941"
   cy="323.264"
   r="48.848"
   id="circle1"
   style="fill:#eee8d5;fill-opacity:1" />
			<path
   d="M411.854,198.358c-33.368-33.368-77.729-51.744-124.912-51.744s-91.541,18.376-124.9,51.744     c-33.368,33.36-51.745,77.729-51.745,124.901c0,47.184,18.376,91.541,51.745,124.908c15.078,15.059,39.515,15.068,54.59-0.01     c15.07-15.078,15.07-39.514-0.008-54.59c-18.78-18.773-29.127-43.744-29.127-70.312c0-26.557,10.347-51.527,29.135-70.318     c18.773-18.782,43.744-29.129,70.311-29.129c26.564,0,51.54,10.347,70.32,29.129c18.781,18.791,29.127,43.762,29.127,70.318     c0,26.564-10.346,51.539-29.127,70.312c-15.078,15.076-15.078,39.512-0.01,54.59c7.539,7.537,17.424,11.307,27.299,11.307     c9.877,0,19.754-3.77,27.291-11.297c33.369-33.367,51.746-77.729,51.746-124.908     C463.588,276.087,445.213,231.717,411.854,198.358z"
   id="path1"
   style="fill:#eee8d5;fill-opacity:1" />
			<path
   d="M 489.938,120.275 C 378.004,8.342 195.883,8.342 83.95,120.275 c -111.934,111.925 -111.934,294.056 0,405.978 15.059,15.078 39.522,15.078 54.582,0 15.077,-15.068 15.077,-39.512 0,-54.582 -39.636,-39.645 -61.47,-92.352 -61.47,-148.4 0,-56.064 21.834,-108.768 61.47,-148.413 81.834,-81.836 214.989,-81.836 296.824,0 39.637,39.646 61.471,92.352 61.471,148.413 0,56.051 -21.834,108.756 -61.472,148.4 -15.077,15.07 -15.077,39.516 0,54.582 7.529,7.539 17.416,11.309 27.291,11.309 9.878,0 19.763,-3.77 27.291,-11.309 111.934,-111.921 111.934,-294.055 10e-4,-405.978 z"
   id="path2"
   style="opacity:1;mix-blend-mode:normal;fill:#eee8d5;fill-opacity:1" />
		</g>
	</g>
</g>
</svg>
