<svg id="eqnMB7YQTr91" xmlns="http://www.w3.org/2000/svg" xmlns:xlink="http://www.w3.org/1999/xlink" viewBox="0 0 27.963 27.963" shape-rendering="geometricPrecision" text-rendering="geometricPrecision" project-id="5e0c093f053347f8b99fb75af85349ef" export-id="9ce5756cb20b4727a5c773619199c01c" cached="false"><g><g><path d="M13.983,0C6.261,0,0.001,6.259,0.001,13.979c0,7.724,6.26,13.984,13.982,13.984s13.98-6.261,13.98-13.984C27.963,6.259,21.705,0,13.983,0Zm0,26.531c-6.933,0-12.55-5.62-12.55-12.553c0-6.93,5.617-12.548,12.55-12.548c6.931,0,12.549,5.618,12.549,12.548-.001,6.933-5.619,12.553-12.549,12.553Z" fill="#c18c00"/><polygon points="15.579,17.158 16.191,4.579 11.804,4.579 12.414,17.158" fill="#c18c00"/><path d="M13.998,18.546c-1.471,0-2.5,1.029-2.5,2.526c0,1.443.999,2.528,2.444,2.528h.056c1.499,0,2.469-1.085,2.469-2.528-.026-1.497-.999-2.526-2.469-2.526Z" fill="#c18c00"/></g></g></svg>
