<?xml version="1.0" encoding="UTF-8" standalone="no"?>
<svg
   width="64"
   height="64"
   viewBox="0 0 63.999997 64"
   id="svg4160"
   version="1.1"
   sodipodi:docname="arrow-left-down.svg"
   inkscape:version="1.4.2 (f4327f4, 2025-05-13)"
   xmlns:inkscape="http://www.inkscape.org/namespaces/inkscape"
   xmlns:sodipodi="http://sodipodi.sourceforge.net/DTD/sodipodi-0.dtd"
   xmlns="http://www.w3.org/2000/svg"
   xmlns:svg="http://www.w3.org/2000/svg"
   xmlns:rdf="http://www.w3.org/1999/02/22-rdf-syntax-ns#"
   xmlns:cc="http://creativecommons.org/ns#"
   xmlns:dc="http://purl.org/dc/elements/1.1/">
  <sodipodi:namedview
     pagecolor="#002b36"
     bordercolor="#666666"
     borderopacity="1"
     objecttolerance="10"
     gridtolerance="10"
     guidetolerance="10"
     inkscape:pageopacity="1"
     inkscape:pageshadow="2"
     inkscape:window-width="2560"
     inkscape:window-height="1377"
     id="namedview8"
     showgrid="false"
     inkscape:zoom="3.7005256"
     inkscape:cx="-41.750826"
     inkscape:cy="44.993608"
     inkscape:window-x="-8"
     inkscape:window-y="-8"
     inkscape:window-maximized="1"
     inkscape:current-layer="layer2"
     inkscape:document-rotation="0"
     inkscape:pagecheckerboard="false"
     inkscape:showpageshadow="2"
     inkscape:deskcolor="#d1d1d1">
    <inkscape:grid
       type="xygrid"
       id="grid832"
       originx="0"
       originy="0"
       spacingy="1"
       spacingx="1"
       units="px" />
  </sodipodi:namedview>
  <defs
     id="defs4162" />
  <metadata
     id="metadata4165">
    <rdf:RDF>
      <cc:Work
         rdf:about="">
        <dc:format>image/svg+xml</dc:format>
        <dc:type
           rdf:resource="http://purl.org/dc/dcmitype/StillImage" />
      </cc:Work>
    </rdf:RDF>
  </metadata>
  <g
     id="layer2"
     style="display:inline;stroke:none"
     transform="translate(-3.5328446,2.2636422)">
    <path
       style="color:#000000;opacity:0.998;fill:#eee8d5;stroke-linecap:round;stroke-linejoin:round;-inkscape-stroke:none"
       d="m 45.98255,8.0186067 7.026329,6.0010523 c 0.520915,0.444901 0.536229,1.029211 0.21835,1.4014 L 37.37537,33.981202 c -1.14265,1.338424 -0.127491,3.394116 1.629849,3.300442 l 4.389897,-0.231894 c 0.5884,-0.03116 1.155084,0.452833 1.216351,1.038862 l 0.623857,5.972969 c 0.0308,0.294448 -0.0487,0.493087 -0.184215,0.651753 -0.135518,0.158668 -0.320542,0.269729 -0.616178,0.285388 l -17.996794,0.952289 -6.001045,0.319906 C 19.847034,46.302168 19.28515,45.822273 19.223709,45.23459 L 18.600905,39.257384 16.726152,21.333189 c -0.06144,-0.587678 0.210339,-0.905891 0.800398,-0.937138 l 5.997021,-0.318203 c 0.588401,-0.03116 1.155084,0.452829 1.216355,1.038863 l 0.457691,4.372126 c 0.182383,1.750357 2.371575,2.431439 3.514771,1.093481 L 44.564245,8.0221712 c 0.317882,-0.3721878 0.897394,-0.4484662 1.418305,-0.00356 z"
       id="rect852-3"
       sodipodi:nodetypes="ssscccccscccccccccccss" />
  </g>
</svg>
