<?xml version="1.0" encoding="UTF-8" standalone="no"?>
<svg
   width="64"
   height="64"
   viewBox="0 0 63.999997 64"
   id="svg4160"
   version="1.1"
   sodipodi:docname="arrow-right-down.svg"
   inkscape:version="1.4.2 (f4327f4, 2025-05-13)"
   xmlns:inkscape="http://www.inkscape.org/namespaces/inkscape"
   xmlns:sodipodi="http://sodipodi.sourceforge.net/DTD/sodipodi-0.dtd"
   xmlns="http://www.w3.org/2000/svg"
   xmlns:svg="http://www.w3.org/2000/svg"
   xmlns:rdf="http://www.w3.org/1999/02/22-rdf-syntax-ns#"
   xmlns:cc="http://creativecommons.org/ns#"
   xmlns:dc="http://purl.org/dc/elements/1.1/">
  <sodipodi:namedview
     pagecolor="#002b36"
     bordercolor="#666666"
     borderopacity="1"
     objecttolerance="10"
     gridtolerance="10"
     guidetolerance="10"
     inkscape:pageopacity="1"
     inkscape:pageshadow="2"
     inkscape:window-width="2560"
     inkscape:window-height="1377"
     id="namedview8"
     showgrid="false"
     inkscape:zoom="3.7005256"
     inkscape:cx="-41.885942"
     inkscape:cy="44.993608"
     inkscape:window-x="-8"
     inkscape:window-y="-8"
     inkscape:window-maximized="1"
     inkscape:current-layer="layer2"
     inkscape:document-rotation="0"
     inkscape:pagecheckerboard="false"
     inkscape:showpageshadow="2"
     inkscape:deskcolor="#d1d1d1">
    <inkscape:grid
       type="xygrid"
       id="grid832"
       originx="0"
       originy="0"
       spacingy="1"
       spacingx="1"
       units="px" />
  </sodipodi:namedview>
  <defs
     id="defs4162" />
  <metadata
     id="metadata4165">
    <rdf:RDF>
      <cc:Work
         rdf:about="">
        <dc:format>image/svg+xml</dc:format>
        <dc:type
           rdf:resource="http://purl.org/dc/dcmitype/StillImage" />
      </cc:Work>
    </rdf:RDF>
  </metadata>
  <g
     id="layer2"
     style="display:inline;stroke:none"
     transform="translate(-3.5328446,2.2636422)">
    <path
       style="color:#000000;opacity:0.998;fill:#eee8d5;stroke-linecap:round;stroke-linejoin:round;-inkscape-stroke:none"
       d="m 18.706562,15.099996 7.026329,-6.0010515 c 0.520915,-0.4449031 1.100426,-0.3686233 1.418305,0.00357 l 15.85186,18.5601425 c 1.143195,1.337957 3.332385,0.656877 3.514772,-1.093481 l 0.457691,-4.372126 c 0.06127,-0.58603 0.627954,-1.070024 1.216353,-1.038862 l 5.997023,0.318202 c 0.295641,0.01564 0.479399,0.12524 0.614913,0.283903 0.135517,0.15867 0.216262,0.358792 0.185481,0.653237 l -1.874753,17.924195 -0.622803,5.977207 c -0.06144,0.587681 -0.623324,1.067575 -1.213383,1.036326 L 45.277306,47.03135 27.280511,46.079058 c -0.590053,-0.03125 -0.861834,-0.349461 -0.800394,-0.937141 l 0.623856,-5.972966 c 0.06127,-0.586031 0.627949,-1.070024 1.216353,-1.038865 l 4.389897,0.231895 c 1.757338,0.09368 2.772497,-1.962019 1.629849,-3.30044 L 18.488212,16.501398 c -0.31788,-0.37219 -0.302562,-0.956502 0.21835,-1.401402 z"
       id="rect852-3"
       sodipodi:nodetypes="ssscccccscccccccccccss" />
  </g>
</svg>
