<?xml version="1.0" encoding="UTF-8" standalone="no"?>
<svg
   width="64"
   height="64"
   viewBox="0 0 63.999997 64"
   id="svg4160"
   version="1.1"
   sodipodi:docname="arrow-right-up.svg"
   inkscape:version="1.4.2 (f4327f4, 2025-05-13)"
   xmlns:inkscape="http://www.inkscape.org/namespaces/inkscape"
   xmlns:sodipodi="http://sodipodi.sourceforge.net/DTD/sodipodi-0.dtd"
   xmlns="http://www.w3.org/2000/svg"
   xmlns:svg="http://www.w3.org/2000/svg"
   xmlns:rdf="http://www.w3.org/1999/02/22-rdf-syntax-ns#"
   xmlns:cc="http://creativecommons.org/ns#"
   xmlns:dc="http://purl.org/dc/elements/1.1/">
  <sodipodi:namedview
     pagecolor="#002b36"
     bordercolor="#666666"
     borderopacity="1"
     objecttolerance="10"
     gridtolerance="10"
     guidetolerance="10"
     inkscape:pageopacity="1"
     inkscape:pageshadow="2"
     inkscape:window-width="2560"
     inkscape:window-height="1377"
     id="namedview8"
     showgrid="false"
     inkscape:zoom="3.7005256"
     inkscape:cx="-41.750826"
     inkscape:cy="44.993608"
     inkscape:window-x="-8"
     inkscape:window-y="-8"
     inkscape:window-maximized="1"
     inkscape:current-layer="layer2"
     inkscape:document-rotation="0"
     inkscape:pagecheckerboard="false"
     inkscape:showpageshadow="2"
     inkscape:deskcolor="#d1d1d1">
    <inkscape:grid
       type="xygrid"
       id="grid832"
       originx="0"
       originy="0"
       spacingy="1"
       spacingx="1"
       units="px" />
  </sodipodi:namedview>
  <defs
     id="defs4162" />
  <metadata
     id="metadata4165">
    <rdf:RDF>
      <cc:Work
         rdf:about="">
        <dc:format>image/svg+xml</dc:format>
        <dc:type
           rdf:resource="http://purl.org/dc/dcmitype/StillImage" />
      </cc:Work>
    </rdf:RDF>
  </metadata>
  <g
     id="layer2"
     style="display:inline;stroke:none"
     transform="translate(-3.5328446,2.2636422)">
    <path
       style="color:#000000;opacity:0.998;fill:#eee8d5;stroke-linecap:round;stroke-linejoin:round;-inkscape-stroke:none"
       d="M 23.997921,45.457452 17.464089,38.92362 C 16.979687,38.439217 17.010264,37.855508 17.356365,37.509407 L 34.615571,20.250201 c 1.244138,-1.244646 0.393396,-3.37365 -1.365876,-3.418144 L 28.855136,16.71881 c -0.58903,-0.0151 -1.115994,-0.542065 -1.131093,-1.131095 l -0.1533,-6.003502 c -0.0076,-0.295957 0.08724,-0.487747 0.234782,-0.635292 0.147549,-0.147548 0.340719,-0.243746 0.636671,-0.236162 l 18.016032,0.462657 6.007646,0.151918 c 0.59069,0.01514 1.113189,0.537641 1.128332,1.128333 l 0.151918,6.007645 0.462657,18.016032 c 0.01514,0.590686 -0.280766,0.886596 -0.871454,0.871454 l -6.003501,-0.1533 c -0.589032,-0.0151 -1.115994,-0.542059 -1.131096,-1.131095 L 46.089482,29.671845 C 46.044992,27.912575 43.915984,27.061833 42.67134,28.30597 L 25.412134,45.565176 c -0.346102,0.346102 -0.929814,0.376676 -1.414213,-0.107724 z"
       id="rect852-3"
       sodipodi:nodetypes="ssscccccscccccccccccss" />
  </g>
</svg>
