<?xml version="1.0" encoding="UTF-8" standalone="no"?>
<svg
   width="64"
   height="64"
   viewBox="0 0 63.999997 64"
   id="svg4160"
   version="1.1"
   sodipodi:docname="arrow-left-up.svg"
   inkscape:version="1.4.2 (f4327f4, 2025-05-13)"
   xmlns:inkscape="http://www.inkscape.org/namespaces/inkscape"
   xmlns:sodipodi="http://sodipodi.sourceforge.net/DTD/sodipodi-0.dtd"
   xmlns="http://www.w3.org/2000/svg"
   xmlns:svg="http://www.w3.org/2000/svg"
   xmlns:rdf="http://www.w3.org/1999/02/22-rdf-syntax-ns#"
   xmlns:cc="http://creativecommons.org/ns#"
   xmlns:dc="http://purl.org/dc/elements/1.1/">
  <sodipodi:namedview
     pagecolor="#002b36"
     bordercolor="#666666"
     borderopacity="1"
     objecttolerance="10"
     gridtolerance="10"
     guidetolerance="10"
     inkscape:pageopacity="1"
     inkscape:pageshadow="2"
     inkscape:window-width="2560"
     inkscape:window-height="1377"
     id="namedview8"
     showgrid="false"
     inkscape:zoom="3.7005256"
     inkscape:cx="-41.750826"
     inkscape:cy="44.993608"
     inkscape:window-x="-8"
     inkscape:window-y="-8"
     inkscape:window-maximized="1"
     inkscape:current-layer="layer2"
     inkscape:document-rotation="0"
     inkscape:pagecheckerboard="false"
     inkscape:showpageshadow="2"
     inkscape:deskcolor="#d1d1d1">
    <inkscape:grid
       type="xygrid"
       id="grid832"
       originx="0"
       originy="0"
       spacingy="1"
       spacingx="1"
       units="px" />
  </sodipodi:namedview>
  <defs
     id="defs4162" />
  <metadata
     id="metadata4165">
    <rdf:RDF>
      <cc:Work
         rdf:about="">
        <dc:format>image/svg+xml</dc:format>
        <dc:type
           rdf:resource="http://purl.org/dc/dcmitype/StillImage" />
      </cc:Work>
    </rdf:RDF>
  </metadata>
  <g
     id="layer2"
     style="display:inline;stroke:none"
     transform="translate(-3.5328446,2.2636422)">
    <path
       style="color:#000000;opacity:0.998;fill:#eee8d5;stroke-linecap:round;stroke-linejoin:round;-inkscape-stroke:none"
       d="m 55.758043,36.895204 -6.001052,7.026329 c -0.444902,0.520914 -1.029211,0.536229 -1.401401,0.21835 L 29.795447,28.288024 c -1.338423,-1.14265 -3.394116,-0.127491 -3.300442,1.629849 l 0.231894,4.389897 c 0.03116,0.588399 -0.452831,1.155084 -1.038862,1.216351 l -5.972969,0.623857 c -0.294448,0.0308 -0.493087,-0.0487 -0.651752,-0.184217 -0.158669,-0.135516 -0.269727,-0.320544 -0.285387,-0.616178 l -0.95229,-17.996794 -0.319906,-6.001045 c -0.03125,-0.590058 0.448643,-1.151942 1.036327,-1.213383 l 5.977206,-0.6228036 17.924196,-1.874753 c 0.587677,-0.061441 0.90589,0.210339 0.937137,0.8003972 l 0.318203,5.9970214 c 0.03116,0.588401 -0.452831,1.155083 -1.038862,1.216355 l -4.372128,0.457693 c -1.750356,0.182383 -2.431438,2.371575 -1.09348,3.514771 l 18.560147,15.851857 c 0.372187,0.317881 0.448465,0.897394 0.0036,1.418304 z"
       id="rect852-3"
       sodipodi:nodetypes="ssscccccscccccccccccss" />
  </g>
</svg>
