<svg id="eEGFAksYKnW1" xmlns="http://www.w3.org/2000/svg" xmlns:xlink="http://www.w3.org/1999/xlink" viewBox="0 0 16 16" shape-rendering="geometricPrecision" text-rendering="geometricPrecision" project-id="083adbb2f72d4637893a5a6363a1db1b" export-id="979e939fabb94c58b5cb72b671bdff7f" cached="false"><path d="M8,0c-.550781,0-1,.449219-1,1v8.585938L4.707031,7.292969C4.519531,7.105469,4.265625,7,4,7s-.519531.105469-.707031.292969c-.390625.390625-.390625,1.023437,0,1.414062l4,4c.390625.390625,1.023437.390625,1.414062,0l4-4c.390625-.390625.390625-1.023437,0-1.414062s-1.023437-.390625-1.414062,0L9,9.585938L9,1c0-.550781-.449219-1-1-1ZM2,14v2h12v-2h-12Zm0,0" fill="#eee8d5"/></svg>
