<svg id="e3JpdiRnrvo1" xmlns="http://www.w3.org/2000/svg" xmlns:xlink="http://www.w3.org/1999/xlink" viewBox="0 0 1000 1000" shape-rendering="geometricPrecision" text-rendering="geometricPrecision" project-id="870ce6761c7b4b8caaba7908c0394cad" export-id="9649a6f0e7cc4e38b187445288aff82d" cached="false"><path d="M556,397q20-64,4.5-130t-63.5-115q-37-38-87-56.5t-103-14.5q-16,1-25.5,12t-10,25.5t10.5,26.5q18,17,63,52.5t62,52.5t16.5,39.5-16.5,38.5l-79,79q-16,16-39,16.5t-38-15.5L145,283q-12-11-26.5-11t-25.5,9.5-12,25.5q-5,60,19.5,115.5t72,93t107.5,48.5t117-7q9-3,17.5-.5t13.5,9.5L670,877q28,30,66.5,41t77.5,1t67-38.5t38-67-1-77.5-41-66L566,428q-7-5-9.5-13.5t-.5-17.5ZM808,808q-10,11-24.5,13.5t-28.5-3-22-17.5-8-27t8-27.5t22-18t28.5-2.5t24.5,13q14,14,14,34.5t-14,34.5Z" fill="#586e75"/></svg>
