<svg id="ezrAo89Xv3T1" xmlns="http://www.w3.org/2000/svg" xmlns:xlink="http://www.w3.org/1999/xlink" viewBox="0 0 64 64" shape-rendering="geometricPrecision" text-rendering="geometricPrecision"><g transform="matrix(.535714 0 0-.535714 38.7345 2)"><path d="M0,0h-50.286c-3.473,0-6.285-2.784-6.285-6.222v-99.556c0-3.438,2.812-6.222,6.285-6.222h75.429c3.473,0,6.286,2.784,6.286,6.222v74.667L0,0Z" fill="#558aa8" stroke-width="4.9784"/></g><g transform="matrix(.535714 0 0-.535714 38.7345 2)"><path d="M0,0h-50.286c-3.473,0-6.285-2.784-6.285-6.222v-99.556c0-3.438,2.812-6.222,6.285-6.222h75.429c3.473,0,6.286,2.784,6.286,6.222v74.667L0,0Z" fill="none" stroke="#073642" stroke-width="3.73333"/></g><g transform="matrix(.8 0 0 0.8 68.9751 26.7272)"><path d="M-46.218833,39.091043v-25l21.650636-12.5v25l-21.650636,12.5Z" fill="#586e75" stroke-width="1.25"/><path d="M-46.218833,39.091043v-25l-21.650636-12.5v25l21.650636,12.5Z" fill="#839496" stroke-width="1.25"/><path d="M-67.869463,1.591043l21.65063,12.5l21.65063-12.499999-21.65063-12.500001-21.65063,12.5Z" fill="#93a1a1" stroke-width="1.25"/></g><path d="M42.118758,18.538853c-1.869822,0-3.384294-1.049925-3.384294-2.929691v-13.609162L55.353987,18.538853h-13.235229Z" fill="#558aa8" stroke="#073642" stroke-width="2" stroke-linejoin="round"/></svg>
