<svg id="eNPIfOn5Kot1" xmlns="http://www.w3.org/2000/svg" xmlns:xlink="http://www.w3.org/1999/xlink" viewBox="0 0 24 24" shape-rendering="geometricPrecision" text-rendering="geometricPrecision" project-id="c7a12485a28c4f8287b79458532b3960" export-id="5898bbec85844ad68e4791ecc99eb23a" cached="true"><path d="M7,9.5C8.38071,9.5,9.5,8.38071,9.5,7v-4.5c0-.55228-.44772-1-1-1h-1c-.55228,0-1,.44772-1,1v4h-4c-.55228,0-1,.44772-1,1v1c0,.55228.44772,1,1,1h4.5Z" fill="#e3e3e3"/><path d="M17,9.5c-1.3807,0-2.5-1.11929-2.5-2.5v-4.5c0-.55228.4477-1,1-1h1c.5523,0,1,.44772,1,1v4h4c.5523,0,1,.44772,1,1v1c0,.55228-.4477,1-1,1h-4.5Z" fill="#e3e3e3"/><path d="M17,14.5c-1.3807,0-2.5,1.1193-2.5,2.5v4.5c0,.5523.4477,1,1,1h1c.5523,0,1-.4477,1-1v-4h4c.5523,0,1-.4477,1-1v-1c0-.5523-.4477-1-1-1h-4.5Z" fill="#e3e3e3"/><path d="M9.5,17c0-1.3807-1.11929-2.5-2.5-2.5h-4.5c-.55228,0-1,.4477-1,1v1c0,.5523.44772,1,1,1h4v4c0,.5523.44772,1,1,1h1c.55228,0,1-.4477,1-1v-4.5Z" fill="#e3e3e3"/></svg>
