<svg id="etE4dvfkpRO1" xmlns="http://www.w3.org/2000/svg" xmlns:xlink="http://www.w3.org/1999/xlink" viewBox="0 0 24 24" shape-rendering="geometricPrecision" text-rendering="geometricPrecision" project-id="40eb9d6b1be64b99864d6d0b88b2c77e" export-id="4fadf6b3765b4d16b3e34bf34ba0ba21" cached="false"><path d="M4,1.5C2.61929,1.5,1.5,2.61929,1.5,4v4.5c0,.55228.44772,1,1,1h1c.55228,0,1-.44772,1-1v-4h4c.55228,0,1-.44772,1-1v-1c0-.55228-.44772-1-1-1h-4.5Z" fill="#e3e3e3"/><path d="M20,1.5c1.3807,0,2.5,1.11929,2.5,2.5v4.5c0,.55228-.4477,1-1,1h-1c-.5523,0-1-.44772-1-1v-4h-4c-.5523,0-1-.44772-1-1v-1c0-.55228.4477-1,1-1h4.5Z" fill="#e3e3e3"/><path d="M20,22.5c1.3807,0,2.5-1.1193,2.5-2.5v-4.5c0-.5523-.4477-1-1-1h-1c-.5523,0-1,.4477-1,1v4h-4c-.5523,0-1,.4477-1,1v1c0,.5523.4477,1,1,1h4.5Z" fill="#e3e3e3"/><path d="M1.5,20c0,1.3807,1.11929,2.5,2.5,2.5h4.5c.55228,0,1-.4477,1-1v-1c0-.5523-.44772-1-1-1h-4v-4c0-.5523-.44772-1-1-1h-1c-.55228,0-1,.4477-1,1v4.5Z" fill="#e3e3e3"/></svg>
