<svg id="eaAMiDRICk11" xmlns="http://www.w3.org/2000/svg" xmlns:xlink="http://www.w3.org/1999/xlink" viewBox="0 0 32 32" shape-rendering="geometricPrecision" text-rendering="geometricPrecision">
  <!-- Оригинальное изображение -->
  <path d="M1.181131,122.20091c-.070056,0-.111635-.002813-.120492-.003438-.285884-.021689-.500358-.274643-.479138-.565162.02122-.289394.26694-.507096.552823-.487095.02202.00125,1.047584.048941,2.213876-.755925c1.58497-1.09376,2.71768-3.259592,3.275362-6.263166.309195-1.664986.551778-3.376474.786365-5.031522.4327-3.052453.769411-6.964954,1.531849-9.107659.903596-2.539419,2.247521-3.773813,4.108595-3.773813c1.549848,0,2.752922.835493,3.678169,2.554357.783166,1.454972,1.396367,4.464788,1.969426,6.561303.825483,3.020075,1.761125,6.44324,3.626873,9.0451c2.108762,2.940758,5.103775,4.37029,9.156275,4.37029.286745,0,.519056.236141.519056.527473s-.232311.527473-.519056.527473c-4.407826,0-7.677343-1.571355-9.995289-4.803944-1.976646-2.756496-2.939042-6.27748-3.788144-9.384061-1.116903-4.086146-2.070913-8.343046-4.64731-8.343046-3.133096,0-3.780293,6.102647-4.612911,11.976975-.236125,1.666235-.480369,3.389162-.793746,5.076774-.627369,3.378412-1.900807,5.730131-3.784822,6.989589-1.220234.81543-2.319423.889497-2.677761.889497Z" transform="translate(.000214-90.200912)" fill="#586e75"/>
  <path d="M1.257446,160.514052c-.103211,0-.164719-.002063-.177944-.0025-.286506-.010688-.510212-.255392-.499694-.546536.01058-.290957.249232-.518285.537337-.507722v0c.018945.000813,1.905407.058317,3.984882-.655356c2.722238-.934249,4.484453-2.691116,5.237807-5.221721.510704-1.715552.913646-3.612428,1.303363-5.4468c1.128371-5.311415,2.191964-11.053288,5.7517-11.053288c3.183858,0,4.286959,4.389721,5.452604,8.269604.736624,2.451787,1.498221,4.987018,2.803552,6.912396c1.454365,2.14533,3.303369,3.12202,5.820906,3.075517.286445-.007688.523314.226327.528542.517597s-.222845.531785-.509474.537098c-2.860017.053941-5.047623-1.101886-6.694879-3.531797-1.396363-2.059887-2.181825-4.674373-2.941454-7.202916-1.095833-3.647555-2.044425-7.522679-4.459736-7.522679-2.721745,0-3.699411,5.337534-4.736935,10.221046-.394084,1.854935-.801577,3.773125-1.324459,5.529617-.847217,2.845876-2.898275,4.895387-5.931499,5.926768-1.895627.644543-3.600147.701672-4.144619.701672Z" transform="translate(.000842-128.514052)" fill="#7a8788"/>
  <path d="M1.321879,74.196938c-.137779,0-.219892-.002-.237668-.002437-.286568-.007813-.512611-.250204-.504922-.541474s.249785-.520909.532785-.513096c.036721.00075,2.662636.059566,5.562633-.662794c1.685268-.419716,3.131576-1.01713,4.298943-1.775493c1.427056-.927062,2.437885-2.100702,3.0045-3.488169.896977-2.196396,1.463653-5.392171,2.063545-8.775646C17.212506,51.835328,18.423114,45.008,22.473379,45.008c3.375764,0,4.38567,5.389795,5.454932,11.095987.866407,4.623744,1.762277,9.404937,3.862357,10.990542.230103.173699.278079.504096.107148.737987-.170932.233765-.496065.282643-.72623.108819-2.425091-1.830934-3.359464-6.817577-4.263084-11.639898-.943169-5.033584-1.918508-10.238429-4.435123-10.238429-1.376373,0-2.48992,1.228644-3.404304,3.756124-.870835,2.406972-1.447722,5.660001-2.005542,8.805835-.610163,3.441103-1.186496,6.691319-2.126467,8.992909-.650944,1.594106-1.79992,2.933008-3.414945,3.979515-1.267011.821054-2.822435,1.463722-4.623154,1.909939-2.555919.633542-4.847229.689608-5.577088.689608Z" transform="translate(.001021-42.196938)" fill="#93a1a1"/>
  <path d="M32.050366,32h-30.942732c-.292036,0-.528634-.236141-.528634-.527473v-30.945054C0.579,0.236141,0.815598,0,1.107634,0s.528634.236141.528634.527473v30.417582h30.414098c.292036,0,.528634.236141.528634.527472s-.236598.527473-.528634.527473Z" transform="translate(-.579 0)" fill="#eee8d5"/>
  
  <!-- Красная диагональная линия -->
  <line 
    x1="2" 
    y1="2" 
    x2="30" 
    y2="30" 
    stroke="#ff0000" 
    stroke-width="3" 
    stroke-linecap="round"
    stroke-opacity="0.9"
  />
</svg>