<svg id="eequ4MycORU1" xmlns="http://www.w3.org/2000/svg" xmlns:xlink="http://www.w3.org/1999/xlink" viewBox="0 0 512 512" shape-rendering="geometricPrecision" text-rendering="geometricPrecision" project-id="777e5e51baa740d890033a320b47fca8" export-id="a810f01ae4d74f2eb58ae7ce8987f82b" cached="false"><g><g transform="translate(85.5725 42.6667)"><path d="M236.349632,0L1.682965,0v234.666667h42.666667v-42.666667-22.4-126.933333h174.293333l81.706667,81.706666v45.226667v22.4v42.666667h42.666667v-128L236.349632,0v0ZM0,405.333333v-127.972812h28.809688v105.394687h55.000312v22.578125h-83.81ZM153.17,275.102708c20.109583,0,35.522917,6.382084,46.24,19.14625c10.295625,12.222292,15.443437,27.936667,15.443437,47.143125c0,21.012709-6.081041,37.720521-18.243125,50.123438-10.47625,10.717083-24.956354,16.075625-43.440312,16.075625-20.109583,0-35.522917-6.382084-46.24-19.14625-10.295625-12.222292-15.443437-28.1775-15.443437-47.865625c0-20.59125,6.081041-37.088334,18.243124-49.49125c10.536459-10.656875,25.016563-15.985313,43.440313-15.985313Zm-.090313,22.578125c-10.416041,0-18.453854,4.335-24.113437,13.005-5.117708,7.827084-7.676563,17.881875-7.676563,30.164375c0,14.209167,3.040521,25.227292,9.121563,33.054375c5.719792,7.405625,13.306042,11.108438,22.75875,11.108438c10.355833,0,18.42375-4.365104,24.20375-13.095313c5.117708-7.706666,7.676562-17.881875,7.676562-30.525625c0-13.908125-3.04052-24.775729-9.121562-32.602812-5.719792-7.405625-13.336146-11.108438-22.849063-11.108438ZM343.91,333.715521v65.295937c-7.345417,2.468542-12.523333,4.094167-15.53375,4.876875-9.332292,2.468542-19.356979,3.702813-30.074063,3.702813-21.072916,0-37.118437-5.298334-48.136562-15.895-12.222292-11.680417-18.333438-27.966771-18.333438-48.859063c0-24.023125,7.58625-42.145833,22.75875-54.368125c11.018125-8.910833,25.889584-13.36625,44.614375-13.36625c16.015417,0,30.91698,2.920104,44.704688,8.760313l-9.844063,22.487812c-6.5025-3.25125-12.192187-5.524114-17.069062-6.818593s-10.235417-1.941719-16.075625-1.941719c-13.968333,0-24.263958,4.545729-30.886875,13.637187-5.599375,7.706667-8.399063,17.851771-8.399063,30.435313c0,15.112291,4.214584,26.491666,12.64375,34.138125c6.743334,6.14125,15.112292,9.211875,25.106875,9.211875c5.840209,0,11.379375-.993438,16.6175-2.980313v-25.739062h-22.03625v-22.578125h49.942813Z" fill="#586e75" fill-rule="evenodd"/></g></g></svg>
