<svg id="ecMidePKE7l1" xmlns="http://www.w3.org/2000/svg" xmlns:xlink="http://www.w3.org/1999/xlink" viewBox="0 0 32 32" shape-rendering="geometricPrecision" text-rendering="geometricPrecision"><g><g><g><path d="M27.011044,62.944589c-.761719-.761314-2.000146-.761314-2.761763,0l-9.164078,9.164193c-1.127145,1.127045-2.960976,1.127045-4.088628-.000203-1.127043-1.127451-1.127043-2.961285.000102-4.088532l9.163977-9.16399c.761313-.76172.761313-2.000149,0-2.762072l-4.41872-4.418828c-.761313-.761212-2.000349-.761212-2.761662,0L3.815787,60.839452c-5.086518,5.086221-5.086315,13.362993.000203,18.449823c5.086721,5.086525,13.363177,5.086728,18.449796,0l9.164078-9.164295c.761516-.761314.761516-2.000352,0-2.761666l-4.418821-4.418726ZM23.682611,74.558125l-3.866468-3.866271l5.813816-5.814231l3.866367,3.866373-5.813715,5.814129Z" transform="translate(-.001-51.104248)" fill="#586e75"/></g></g></g></svg>
