<svg id="eLE2U8l64W71" xmlns="http://www.w3.org/2000/svg" xmlns:xlink="http://www.w3.org/1999/xlink" viewBox="0 0 32 32" shape-rendering="geometricPrecision" text-rendering="geometricPrecision"><g transform="translate(-16.441483-45.836815)"><g><g><path d="M27.011047,62.944558c-.761719-.761312-2.000146-.761312-2.761763,0l-9.16408,9.164169c-1.127145,1.127041-2.960976,1.127041-4.088628-.000203-1.127044-1.127448-1.127044-2.961277.000101-4.088522l9.163978-9.163966c.761313-.761718.761313-2.000144,0-2.762064l-4.41872-4.418816c-.761313-.76121-2.000349-.76121-2.761662,0l-9.164486,9.16427c-5.086518,5.086208-5.086315,13.362958.000203,18.449775c5.086722,5.086512,13.363179,5.086715,18.449799,0l9.16408-9.164271c.761515-.761311.761515-2.000347,0-2.761658l-4.418822-4.418714ZM23.682614,74.558062l-3.866469-3.86626l5.813817-5.814216l3.866368,3.866363-5.813716,5.814113Z" transform="translate(16.440479-5.267348)" fill="#586e75"/><path d="M240.857484,24.629002c-.056702-.202381-.19925-.31076-.336461-.256066l-8.578463,3.40028c-.100779.040095-.180062.161052-.207691.317499-.027558.155885.00101.322665.074376.437109l1.897067,2.955759-4.387774,4.424991c-.12105.121968-.165777.363882-.10518.567611.014645.04908.034483.092319.057856.128707.073656.114443.183958.161838.288272.112646l8.33874-3.935209c.097173-.045373.171694-.167229.196726-.320531.024816-.15319-.003896-.315364-.07517-.427337l-1.59076-2.49529l4.320756-4.352102c.118671-.119834.164407-.356021.107705-.558066Z" transform="translate(-194.04301 21.967555)" fill="#dcaa29"/></g></g></g></svg>
