<svg id="eHyo5pe0jrd1" xmlns="http://www.w3.org/2000/svg" xmlns:xlink="http://www.w3.org/1999/xlink" viewBox="0 0 24 24" shape-rendering="geometricPrecision" text-rendering="geometricPrecision" project-id="9e2328e6ff324605982ce66d3e7b10ed" export-id="ab943d6d678043738ad5290123103857" cached="false"><g transform="matrix(1.307198 0 0 1.5-8.915168-12)"><path d="M14,8h-5c-.6,0-1,.4-1,1v14c0,.6.4,1,1,1h5c.6,0,1-.4,1-1v-14c0-.6-.4-1-1-1Z" fill="#e3e3e3"/><path d="M23,8h-5c-.6,0-1,.4-1,1v14c0,.6.4,1,1,1h5c.6,0,1-.4,1-1v-14c0-.6-.4-1-1-1Z" fill="#e3e3e3"/></g></svg>
