<svg id="eDslmYkfGPn1" xmlns="http://www.w3.org/2000/svg" xmlns:xlink="http://www.w3.org/1999/xlink" viewBox="0 0 24 24" shape-rendering="geometricPrecision" text-rendering="geometricPrecision" project-id="942e37bab055461cbe2b0bcdb09100f9" export-id="018cbf68d9d046c88c6183ab1f2388ab" cached="false"><ellipse rx="11" ry="11" transform="translate(12 12)" fill-opacity="0.5" stroke-width="0"/><path d="M23,12c0,6.07508-4.92492,11-11,11s-11-4.92492-11-11c0,6.07513,4.92487,11,11,11s11-4.92487,11-11-4.92487-11-11-11c6.07508,0,11,4.92486,11,11ZM4.3,10.99163c-.33378,0-.63468.20119-.76231.50963-.12762.30833-.05684.6633.17934.89914l1.28509,1.28337c.32209.32164.84384.32164,1.16593,0L7.45314,12.4004c.23618-.23584.30698-.59081.17934-.89914-.12763-.30844-.42853-.50963-.76231-.50963h-.39954C6.87003,8.29541,9.19734,6.225,12.01056,6.225c1.81687,0,3.43123.8629,4.45566,2.20352.27665.36204.79442.43127,1.15643.15462s.43131-.7944.15466-1.15643C16.45379,5.69473,14.3628,4.575,12.01056,4.575c-3.72412,0-6.79392,2.80487-7.20394,6.41663h-.50662Zm14.69787-.6754c-.32208-.32164-.84381-.32164-1.16589,0L16.54685,11.5996c-.23617.23584-.3069.59081-.1793.89914.1276.30844.42856.50963.7623.50963h.39952c-.39941,2.69621-2.72668,4.76663-5.53982,4.76663-1.80851,0-3.41623-.85481-4.44136-2.18482-.27817-.3608-.7962-.4279-1.15708-.14971s-.42791.79618-.14975,1.15709c1.32439,1.7182,3.4069,2.82744,5.74819,2.82744c3.72405,0,6.79382-2.80489,7.2039-6.41663h.50655c.33385,0,.6347-.20119.7623-.50963.12771-.30833.05687-.6633-.1793-.89914l-1.28513-1.28337ZM1,12C1,5.92524,5.92426,1.0006,11.99889,1C5.92427,1.0006,1,5.92524,1,12Z" clip-rule="evenodd" fill="#e3e3e3" fill-rule="evenodd"/></svg>
