<svg id="eaYLjXG09MI1" xmlns="http://www.w3.org/2000/svg" xmlns:xlink="http://www.w3.org/1999/xlink" viewBox="0 0 24 24" shape-rendering="geometricPrecision" text-rendering="geometricPrecision" project-id="64190142a2d4487b928cda790fe54002" export-id="2f8d78beb66b463d803e004be0c21041" cached="false"><ellipse rx="11" ry="11" transform="translate(12 12)" fill-opacity="0.5" stroke-width="0"/><path d="M1,12C1,5.92487,5.92487,1,12,1s11,4.92487,11,11-4.9249,11-11,11-11-4.9249-11-11Zm7,4c0,.5523.44772,1,1,1h1c.5523,0,1-.4477,1-1v-8c0-.55228-.4477-1-1-1h-1c-.55228,0-1,.44772-1,1v8Zm5,0c0,.5523.4477,1,1,1h1c.5523,0,1-.4477,1-1v-8c0-.55228-.4477-1-1-1h-1c-.5523,0-1,.44772-1,1v8Zm-1,7c6.07513,0,11-4.92487,11-11s-4.92487-11-11-11-11,4.92487-11,11s4.92487,11,11,11Z" clip-rule="evenodd" fill="#e3e3e3" fill-rule="evenodd"/></svg>
