<svg id="eo2azqcgpQs1" xmlns="http://www.w3.org/2000/svg" xmlns:xlink="http://www.w3.org/1999/xlink" viewBox="0 0 24 24" shape-rendering="geometricPrecision" text-rendering="geometricPrecision" project-id="f3494f9bbb2c47d49c3602e65cfc60fe" export-id="3e43747693ba4d6493a7f4c82dc33f55" cached="false"><ellipse rx="11" ry="11" transform="translate(12 12)" fill-opacity="0.5" stroke-width="0"/><path d="M1,12C1,5.92487,5.92487,1,12,1s11,4.92487,11,11-4.9249,11-11,11-11-4.9249-11-11ZM9.64109,7.19733C9.14132,6.89192,8.5,7.2516,8.5,7.83729v8.32541c0,.5857.64132.9454,1.14109.64L16.4528,12.64c.4785-.2925.4785-.9875,0-1.28L9.64109,7.19733ZM12,23c6.07513,0,11-4.92487,11-11s-4.92487-11-11-11-11,4.92487-11,11s4.92487,11,11,11Z" clip-rule="evenodd" fill="#e3e3e3" fill-rule="evenodd" stroke="rgba(0,0,0,0)"/></svg>
