<svg id="eiZNDru6zhO1" xmlns="http://www.w3.org/2000/svg" xmlns:xlink="http://www.w3.org/1999/xlink" viewBox="0 0 32 32" shape-rendering="geometricPrecision" text-rendering="geometricPrecision" project-id="4ff92279ee2942899fc92080b67c9d1a" export-id="873785b4ded5424c9ea615b23dd7c05d" cached="false"><g><g><path d="M5.5,28.5v-25h3v25h-3Zm12,0v-25h-3v25h3Zm9,0v-25h-3v25h3Z" fill="#586e75"/></g><path d="M25,13c1.654,0,3,1.346,3,3s-1.346,3-3,3-3-1.346-3-3s1.346-3,3-3m0-1c-2.209,0-4,1.791-4,4s1.791,4,4,4s4-1.791,4-4-1.791-4-4-4v0Z" fill="#231f20"/><g><path d="M16,25.5c-1.93,0-3.5-1.57-3.5-3.5s1.57-3.5,3.5-3.5s3.5,1.57,3.5,3.5-1.57,3.5-3.5,3.5ZM10.5,10c0-1.93-1.57-3.5-3.5-3.5s-3.5,1.57-3.5,3.5s1.57,3.5,3.5,3.5s3.5-1.57,3.5-3.5Zm18,6c0-1.93-1.57-3.5-3.5-3.5s-3.5,1.57-3.5,3.5s1.57,3.5,3.5,3.5s3.5-1.57,3.5-3.5Z" fill="#eee8d5"/></g><path d="M11,10c0-1.477-.809-2.752-2-3.445L9,3h-4v3.555C3.809,7.248,3,8.523,3,10s.809,2.752,2,3.445L5,29h4v-15.555c1.191-.693,2-1.968,2-3.445ZM6,4h2v2.141C7.679,6.058,7.347,6,7,6s-.679.058-1,.141L6,4ZM8,28h-2v-14.141c.321.083.653.141,1,.141s.679-.058,1-.141L8,28ZM7,13c-1.654,0-3-1.346-3-3s1.346-3,3-3s3,1.346,3,3-1.346,3-3,3Zm22,3c0-1.477-.809-2.752-2-3.445L27,3h-4v9.555c-1.191.693-2,1.968-2,3.445s.809,2.752,2,3.445L23,29h4v-9.555c1.191-.693,2-1.968,2-3.445ZM24,4h2v8.141c-.321-.083-.653-.141-1-.141s-.679.058-1,.141L24,4Zm2,24h-2v-8.141c.321.083.653.141,1,.141s.679-.058,1-.141L26,28Zm-1-9c-1.654,0-3-1.346-3-3s1.346-3,3-3s3,1.346,3,3-1.346,3-3,3Zm-5,3c0-1.477-.809-2.752-2-3.445L18,3h-4v15.555c-1.191.693-2,1.968-2,3.445s.809,2.752,2,3.445L14,29h4v-3.555c1.191-.693,2-1.968,2-3.445ZM15,4h2v14.141c-.321-.083-.653-.141-1-.141s-.679.058-1,.141L15,4Zm2,24h-2v-2.141c.321.083.653.141,1,.141s.679-.058,1-.141L17,28Zm-1-3c-1.654,0-3-1.346-3-3s1.346-3,3-3s3,1.346,3,3-1.346,3-3,3Z" fill="#231f20"/></g></svg>
