<svg id="exvJ2CzOwBi1" xmlns="http://www.w3.org/2000/svg" xmlns:xlink="http://www.w3.org/1999/xlink" viewBox="0 0 267.521 267.521" shape-rendering="geometricPrecision" text-rendering="geometricPrecision"><path d="M260.021,65.636c4.143,0,7.5-3.358,7.5-7.5v-50c0-4.142-3.357-7.5-7.5-7.5h-50c-4.143,0-7.5,3.358-7.5,7.5v17.5h-137.521v-17.5c0-4.142-3.357-7.5-7.5-7.5h-50c-4.143,0-7.5,3.358-7.5,7.5v50c0,4.142,3.357,7.5,7.5,7.5h17.5v136.25h-17.5c-4.143,0-7.5,3.358-7.5,7.5v50c0,4.142,3.357,7.5,7.5,7.5h50c4.143,0,7.5-3.358,7.5-7.5v-17.5h137.521v17.5c0,4.142,3.357,7.5,7.5,7.5h50c4.143,0,7.5-3.358,7.5-7.5v-50c0-4.142-3.357-7.5-7.5-7.5h-17.5v-136.25h17.5Zm-42.5-50h35v35h-35v-35ZM15,15.636h35v35h-35v-35Zm35,236.25h-35v-35h35v35Zm202.521,0h-35v-35h35v35Zm-25-50h-17.5c-4.143,0-7.5,3.358-7.5,7.5v17.5h-137.521v-17.5c0-4.142-3.357-7.5-7.5-7.5h-17.5v-136.25h17.5c4.143,0,7.5-3.358,7.5-7.5v-17.5h137.521v17.5c0,4.142,3.357,7.5,7.5,7.5h17.5v136.25Z" fill="#eee8d5"/></svg>
