<svg id="eXxTSkU5RAB1" xmlns="http://www.w3.org/2000/svg" xmlns:xlink="http://www.w3.org/1999/xlink" viewBox="0 0 24 24" shape-rendering="geometricPrecision" text-rendering="geometricPrecision" project-id="450210b7c2ab46439457f043725b2aed" export-id="284178a667954197ac1be4a752d05473" cached="false"><path d="M23,12v6c0,.552285-.447715,1-1,1h-9v2h3c.552285,0,1,.447715,1,1s-.447715,1-1,1h-8c-.552285,0-1-.447715-1-1s.447715-1,1-1h3v-2h-9c-.552285,0-1-.447715-1-1L1,4c0-.552285.447715-1,1-1h10c.552285,0,1,.447715,1,1s-.447715,1-1,1h-9v12h18v-5c0-.552285.447715-1,1-1s1,.447715,1,1ZM21.585,6.075c-.069071.15455-.037855.33552.079.458l.444.444c.076654.07522.11984.178104.11984.2855s-.043186.21028-.11984.2855l-.56.561c-.07522.076654-.178104.11984-.2855.11984s-.21028-.043186-.2855-.11984l-.444-.444c-.122128-.117452-.303288-.149096-.458-.08h-.006c-.158789.059933-.265246.210319-.269.38v.635c0,.220914-.179086.4-.4.4h-.8c-.220914,0-.4-.179086-.4-.4v-.632c-.003639-.170023-.110641-.32062-.27-.38v0c-.155019-.069266-.336555-.037625-.459.08l-.444.444c-.07522.076654-.178104.11984-.2855.11984s-.21028-.043186-.2855-.11984l-.56-.561c-.076654-.07522-.11984-.178104-.11984-.2855s.043186-.21028.11984-.2855l.444-.444c.117367-.122221.14864-.303522.079-.458v-.006c-.060068-.159122-.210951-.265651-.381-.269h-.638c-.106087,0-.207828-.042143-.282843-.117157s-.117157-.176756-.117157-.282843v-.803c0-.106087.042143-.207828.117157-.282843s.176756-.117157.282843-.117157h.628c.170391-.003233.321486-.110307.381-.27v-.005c.06964-.154478.038367-.335779-.079-.458l-.444-.444c-.076654-.07522-.11984-.178104-.11984-.2855s.043186-.21028.11984-.2855l.56-.561c.07522-.076654.178104-.11984.2855-.11984s.21028.043186.2855.11984l.444.444c.122445.117625.303981.149266.459.08v0c.159359-.05938.266361-.209977.27-.38v-.635c0-.220914.179086-.4.4-.4h.81c.220914,0,.4.179086.4.4v.628c.003754.169681.110211.320067.269.38h.006c.154712.069096.335872.037452.458-.08l.444-.444c.07522-.076654.178104-.11984.2855-.11984s.21028.043186.2855.11984l.56.561c.076654.07522.11984.178104.11984.2855s-.043186.21028-.11984.2855l-.444.444c-.116855.12248-.148071.30345-.079.458v.005c.059745.159515.2107.26649.381.27h.634c.220914,0,.4.179086.4.4v.807c0,.220914-.179086.4-.4.4h-.628c-.169959.003624-.320704.110055-.381.269l-.006.006ZM20.2,5c0-.662742-.537258-1.2-1.2-1.2s-1.2.537258-1.2,1.2.537258,1.2,1.2,1.2s1.2-.537258,1.2-1.2Z" fill="#586e75"/></svg>
