<svg id="eEYVZLrFTBy1" xmlns="http://www.w3.org/2000/svg" xmlns:xlink="http://www.w3.org/1999/xlink" viewBox="0 0 63.999997 64" shape-rendering="geometricPrecision" text-rendering="geometricPrecision" project-id="cef18ed217aa44af839949a9f0836496" export-id="16443532c2a1496ea50dc171fb5382f4" cached="false"><g transform="translate(-3.53284 2.26364)"><path d="M31.532845,13.736358v8h7.999999v-8h-7.999999m11.999998,0v8h8.000001v-8h-8.000001m0,12v8h8.000001v-8h-8.000001m0,11.999999v8.000001h8.000001v-8.000001h-8.000001m-3.999999,8.000001v-8.000001h-7.999999v8.000001h7.999999m-11.999998,0v-8.000001h-8.000001v8.000001h8.000001m0-12v-8h-8.000001v8h8.000001m0-12v-8h-8.000001v8h8.000001m3.999999,12h7.999999v-8h-7.999999v8m-12-24h31.999999c1.060866-.000001,2.078282.421427,2.828428,1.171572s1.171573,1.767562,1.171573,2.828428v32c0,1.060866-.421427,2.078282-1.171573,2.828427s-1.767562,1.171573-2.828428,1.171573h-31.999999c-2.16,0-4-1.8-4-4v-32c0-1.060866.421427-2.078282,1.171573-2.828427s1.767561-1.171573,2.828427-1.171573Z" opacity="0.998" fill="#eee8d5" stroke-linecap="round" stroke-linejoin="round"/></g><line x1="25.080875" y1="-24.89058" x2="-25.080875" y2="24.890581" transform="translate(31.999999 31.999998)" fill="none" stroke="#cd0f0f" stroke-width="4" stroke-linecap="round"/></svg>
