<svg id="eDaCNykbqQl1" xmlns="http://www.w3.org/2000/svg" xmlns:xlink="http://www.w3.org/1999/xlink" viewBox="0 0 24 24" shape-rendering="geometricPrecision" text-rendering="geometricPrecision" project-id="1303ddcd0617457b90687fe0132b0f11" export-id="59e3a0cbf7084953b85b65da2fa56b15" cached="false"><path d="M12,19c-1.933,0-3.68296-.7835-4.94971-2.0502L12,12v-7c3.866,0,7,3.13401,7,7s-3.134,7-7,7Z" fill="#586e75"/><path d="M23,12c0,6.0751-4.9249,11-11,11s-11-4.9249-11-11s4.92487-11,11-11s11,4.92487,11,11Zm-2,0c0,4.9706-4.0294,9-9,9s-9-4.0294-9-9s4.02944-9,9-9s9,4.02944,9,9Z" clip-rule="evenodd" fill="#eee8d5" fill-rule="evenodd"/></svg>
