<?xml version="1.0" encoding="UTF-8" standalone="no"?>
<svg
   id="ecRtzo0DYSE1"
   viewBox="0 0 24 24"
   shape-rendering="geometricPrecision"
   text-rendering="geometricPrecision"
   version="1.1"
   sodipodi:docname="wifi_good.svg"
   inkscape:version="1.4.2 (f4327f4, 2025-05-13)"
   xmlns:inkscape="http://www.inkscape.org/namespaces/inkscape"
   xmlns:sodipodi="http://sodipodi.sourceforge.net/DTD/sodipodi-0.dtd"
   xmlns="http://www.w3.org/2000/svg"
   xmlns:svg="http://www.w3.org/2000/svg">
  <defs
     id="defs5" />
  <sodipodi:namedview
     id="namedview5"
     pagecolor="#ffffff"
     bordercolor="#000000"
     borderopacity="0.25"
     inkscape:showpageshadow="2"
     inkscape:pageopacity="0.0"
     inkscape:pagecheckerboard="0"
     inkscape:deskcolor="#d1d1d1"
     inkscape:zoom="48.958333"
     inkscape:cx="12"
     inkscape:cy="12"
     inkscape:window-width="2560"
     inkscape:window-height="1377"
     inkscape:window-x="-8"
     inkscape:window-y="-8"
     inkscape:window-maximized="1"
     inkscape:current-layer="g4" />
  <g
     transform="matrix(1.55 0 0 1.54714-6.612754-7.532642)"
     id="g5">
    <g
       id="g4">
      <path
         d="M10.5,17.5c0-.8284.6716-1.5,1.5-1.5h.0075c.8284,0,1.5.6716,1.5,1.5s-.6716,1.5-1.5,1.5L12,19c-.8284,0-1.5-.6716-1.5-1.5Z"
         clip-rule="evenodd"
         fill="#0031a3"
         fill-rule="evenodd"
         id="path1"
         style="fill:#eee8d5;fill-opacity:1" />
      <path
         d="m 16.5121,12.487 c -2.74,-2.1155 -6.2764,-2.1155 -9.01636,0 -0.32786,0.2532 -0.79886,0.1926 -1.052,-0.1353 -0.25314,-0.3278 -0.19256,-0.7988 0.1353,-1.0519 3.28002,-2.53253 7.56976,-2.53253 10.84976,0 0.3279,0.2531 0.3884,0.7241 0.1353,1.0519 -0.2532,0.3279 -0.7241,0.3885 -1.052,0.1353 z"
         clip-rule="evenodd"
         fill="#0031a3"
         fill-rule="evenodd"
         id="path2"
         sodipodi:nodetypes="ccccccc"
         style="fill:#eee8d5;fill-opacity:1" />
      <path
         d="M18.5417,10.0506c-3.972-3.06747-9.11126-3.06747-13.08325,0-.32783.2532-.79883.1927-1.05201-.13517s-.19265-.79883.13518-1.05201c4.51206-3.48456,10.40488-3.48456,14.91688,0c.3279.25318.3884.72418.1352,1.05201s-.7242.38837-1.052.13517Z"
         clip-rule="evenodd"
         fill="#4e4e4e"
         fill-rule="evenodd"
         id="path3" />
      <path
         d="m 15.1808,15.0409 c -1.9346,-1.4986 -4.4338,-1.4986 -6.36846,0 -0.32746,0.2537 -0.79855,0.1938 -1.0522,-0.1336 -0.25365,-0.3274 -0.19382,-0.7986 0.13364,-1.0522 2.47542,-1.9175 5.73022,-1.9175 8.20562,0 0.3274,0.2536 0.3873,0.7247 0.1336,1.0522 -0.2537,0.3275 -0.7247,0.3873 -1.0522,0.1336 z"
         clip-rule="evenodd"
         fill="#0031a3"
         fill-rule="evenodd"
         id="path4"
         sodipodi:nodetypes="ccsccsc"
         style="fill:#eee8d5;fill-opacity:1" />
    </g>
  </g>
</svg>
