<svg id="e3Tb4sialpG1" xmlns="http://www.w3.org/2000/svg" xmlns:xlink="http://www.w3.org/1999/xlink" viewBox="0 0 64 64" shape-rendering="geometricPrecision" text-rendering="geometricPrecision" project-id="f844064f92c84bc2908c7ce114cc5e1d" export-id="f301a2788c614e05935cded844cd3246" cached="false"><g transform="translate(0-2)"><rect width="6" height="4" rx="2" ry="2" transform="translate(9 50)" opacity="0.995" paint-order="stroke fill markers" fill="#93a1a1" stroke-width="2" stroke-linecap="round" stroke-linejoin="round"/><rect width="6" height="4" rx="2" ry="2" transform="translate(49 50)" opacity="0.995" paint-order="stroke fill markers" fill="#93a1a1" stroke-width="2" stroke-linecap="round" stroke-linejoin="round"/><rect width="55" height="7" rx="2" ry="2" transform="translate(4.5 44)" opacity="0.995" paint-order="stroke fill markers" fill="#839496" stroke-width="2.00001" stroke-linecap="round" stroke-linejoin="round"/><rect width="55" height="2" rx="0" ry="0" transform="translate(4.5 44)" opacity="0.995" paint-order="stroke fill markers" fill="#586e75" stroke-width="2.00001" stroke-linecap="round" stroke-linejoin="round"/></g><path d="M48.497934,9.447398h-5.023727c-.372446,0-.585092.236157-.585092.502267v13.270242c-.000195.956786-1.145728,1.448202-1.839167.788972l-1.732979-1.645905c-.232251-.22064-.637423-.22064-.869674,0l-2.366918,2.24905c-.116694.11086-.153972.221046-.153972.33449s.03728.224692.153972.335552l7.103938,6.748211l2.36798,2.251175c.232906.221263.634644.221263.867551,0l2.36798-2.251175l7.103938-6.748211c.232905-.221261.232905-.44878,0-.670042l-2.366917-2.24905c-.232252-.220641-.637422-.220642-.869675,0l-1.732979,1.645905c-.693439.659229-1.838972.167814-1.839166-.788972v-13.270242c0-.266111-.212648-.502267-.585093-.502267Z" opacity="0.998" fill="#eee8d5" stroke-width="0.54368" stroke-linecap="round" stroke-linejoin="round"/></svg>
