<svg id="eytfFj54rb61" xmlns="http://www.w3.org/2000/svg" xmlns:xlink="http://www.w3.org/1999/xlink" viewBox="0 0 390 390" shape-rendering="geometricPrecision" text-rendering="geometricPrecision"><g><g><g><path d="M266.017,167.717c-7.502-7.498-19.699-7.498-27.2,0l-90.255,90.256c-11.101,11.1-29.162,11.1-40.268-.002-11.1-11.104-11.1-29.165.001-40.267l90.254-90.254c7.498-7.502,7.498-19.699,0-27.203L155.03,56.727c-7.498-7.497-19.701-7.497-27.199,0L37.572,146.984c-50.096,50.093-50.094,131.609.002,181.708c50.098,50.096,131.611,50.098,181.708,0l90.255-90.257c7.5-7.498,7.5-19.701,0-27.199l-43.52-43.519ZM233.236,282.096l-38.08-38.078l57.259-57.263l38.079,38.079-57.258,57.262Z" transform="translate(16.440479-5.267348)" fill="#586e75"/></g></g></g></svg>
