<svg id="euCRLmtFAby1" xmlns="http://www.w3.org/2000/svg" xmlns:xlink="http://www.w3.org/1999/xlink" viewBox="0 0 18 18" shape-rendering="geometricPrecision" text-rendering="geometricPrecision"><g><path d="M17.85,3.15l-2.99-3c-.0952-.096-.2248-.15-.36-.15L1.4,0c-.781033.009337-1.407222.648944-1.4,1.43v15.14c-.007222.781056.618967,1.420663,1.4,1.43h15.2c.781033-.009337,1.407222-.648944,1.4-1.43L18,3.5c.001742-.132629-.052757-.259793-.15-.35ZM16,16h-14L2,5.9c.194.089.406.133.62.13h7.76c.893335-.00329,1.61671-.726665,1.62-1.62L12,2h1.88L16,4.13L16,16Z" fill="#839496" fill-rule="evenodd"/><circle r="3" transform="translate(9 11)" fill="#839496" fill-rule="evenodd"/></g></svg>
