<svg id="eKusxZ6XwI51" xmlns="http://www.w3.org/2000/svg" xmlns:xlink="http://www.w3.org/1999/xlink" viewBox="0 0 32 32" shape-rendering="geometricPrecision" text-rendering="geometricPrecision"><path d="M7,32c-3.86599,0-7-3.13401-7-7L0,7C0,3.13401,3.13401,0,7,0h18c3.86599,0,7,3.13401,7,7v18c0,3.86599-3.13401,7-7,7h-18Zm14.56503-2.90527c3.86599,0,7-3.13401,7-7v-12.23202c0-3.86599-3.13401-7-7-7h-11.11348c-3.86599,0-7,3.13401-7,7v12.23202c0,3.86599,3.13401,7,7,7h11.11348Z"/><path d="M30,13.25c.69,0,1.25-.56,1.25-1.25v-10c0-.021-.011-.038-.012-.059-.004-.151-.034-.294-.087-.426l.003.008v-.003l-.002-.003c-.005-.013-.015-.022-.021-.035-.059-.126-.132-.233-.22-.327l.001.001c-.012-.013-.015-.029-.027-.041-.02-.02-.047-.027-.068-.045l-.001-.001c-.076-.067-.162-.126-.254-.173l-.007-.003c-.027-.013-.048-.036-.075-.047-.018-.007-.036-.008-.054-.014-.126-.05-.271-.08-.424-.083h-10.001c-.69,0-1.25.56-1.25,1.25s.56,1.25,1.25,1.25v0h6.981L16.001,14.23L5.019,3.249h6.982c.69,0,1.25-.56,1.25-1.25s-.56-1.25-1.25-1.25v0h-10c-.171,0-.334.035-.483.097l.008-.003h-.004l-.005.003-.022.013c-.13.06-.242.137-.339.229h.001c-.03.03-.058.061-.084.093l-.002.002c-.067.076-.125.161-.172.253l-.003.007c-.014.028-.036.049-.048.078-.007.017-.007.035-.014.053-.05.126-.08.272-.083.424v10.001c0,.69.56,1.25,1.25,1.25s1.25-.56,1.25-1.25v0-6.982L14.232,15.999L3.251,26.98v-6.981c0-.69-.56-1.25-1.25-1.25s-1.25.56-1.25,1.25v0v10c0,.171.035.335.097.483l-.003-.008v.003l.003.005.011.018c.061.132.138.245.231.343v-.001c.011.012.015.029.027.041.02.02.047.027.069.045.076.067.161.125.254.172l.007.003c.027.013.047.036.075.047.018.007.037.008.056.015.125.05.271.08.422.082h10.001c.69,0,1.25-.56,1.25-1.25s-.56-1.25-1.25-1.25v0h-6.981L16.001,17.766L26.982,28.747h-6.981c-.69,0-1.25.56-1.25,1.25s.56,1.25,1.25,1.25v0h10c.172,0,.337-.036.486-.099l-.008.003h.001l.003-.002.031-.019c.126-.059.235-.132.329-.221l-.001.001c.013-.012.031-.016.044-.029.021-.021.028-.05.048-.072.066-.075.124-.16.17-.252l.003-.007c.013-.027.035-.047.047-.074.007-.017.008-.036.014-.054.05-.126.08-.272.083-.424v-10.001c0-.69-.56-1.25-1.25-1.25s-1.25.56-1.25,1.25v0v6.981L17.77,15.997L28.751,5.016v6.981c0,.69.56,1.25,1.25,1.25v0Z" transform="matrix(.715596 0 0 0.72 4.550749 4.479441)"/></svg>
