<svg id="eyaX8fbjiGH1" xmlns="http://www.w3.org/2000/svg" xmlns:xlink="http://www.w3.org/1999/xlink" viewBox="0 0 512 512" shape-rendering="geometricPrecision" text-rendering="geometricPrecision"><path d="M10.352,511.99c-1.139,0-1.815-.045-1.959-.055-4.648-.347-8.135-4.394-7.79-9.042.345-4.63,4.34-8.113,8.988-7.793.358.02,17.032.783,35.994-12.094c25.769-17.499,44.185-52.15,53.252-100.204c5.027-26.638,8.971-54.02,12.785-80.499c7.035-48.836,12.509356-111.43187,24.905356-145.71287c14.691-40.628,36.541-60.377,66.799-60.377c25.198,0,44.758,13.367,59.801,40.867C275.860356,160.35813,285.83,208.512,295.147,242.054c13.421,48.318,28.633,103.085,58.967,144.712c34.285,47.049,82.979,69.92,148.866,69.92c4.662,0,8.439,3.778,8.439,8.439s-3.777,8.439-8.439,8.439c-71.664,0-124.821-25.14-162.507-76.858-32.137-44.101-47.784-100.433-61.589-150.135-18.159-65.374-33.669644-133.47987-75.557644-133.47987-50.939,0-61.461356,97.63587-74.998356,191.61887-3.839,26.658-7.81,54.223-12.905,81.223-10.2,54.051-30.904,91.676-61.535,111.826-19.839,13.046-37.71,14.231-43.536,14.231Z" fill="#586e75"/><path d="M11.602,511.998c-1.678,0-2.678-.033-2.893-.04-4.658-.171-8.295-4.086-8.124-8.744.172-4.655,4.052-8.292,8.736-8.123v0c.308.013,30.978.933,64.786-10.485c44.258-14.947,72.908-43.055,85.156-83.542c8.303-27.447,14.854-57.795,21.19-87.143c18.345-84.977,35.636844-176.84087,93.510844-176.84087c51.763,0,69.697156,70.23087,88.648156,132.30487c11.976,39.226,24.358,79.787,45.58,110.591c23.645,34.323,53.706,49.949,94.636,49.205c4.657-.123,8.508,3.621,8.593,8.281s-3.623,8.508-8.283,8.593c-46.498.863-82.064-17.629-108.845-56.505-22.702-32.956-35.472-74.785-47.822-115.239-17.816-58.357-33.238156-120.35487-72.506156-120.35487-44.25,0-60.144844,85.39487-77.012844,163.52587-6.407,29.677-13.032,60.366-21.533,88.468-13.774,45.531-47.12,78.321-96.434,94.822-30.819,10.312-58.531,11.226-67.383,11.226Z" fill="#7a8788"/><path d="M12.655,512c-2.24,0-3.575-.032-3.864-.039-4.659-.125-8.334-4.003-8.209-8.663.125-4.659,4.061-8.334,8.662-8.209.597.012,43.289.953,90.437-10.604c27.399-6.715,50.913-16.273,69.892-28.406c23.201-14.832,39.635-33.609,48.847-55.807c14.583-35.14,23.796-86.269,33.549-140.401C271.004,154.238,290.686,45.008,356.535,45.008c54.883,0,71.302,86.231,88.686,177.524c14.086,73.975,28.651,150.469,62.794,175.837c3.741,2.779,4.521,8.065,1.742,11.807-2.779,3.74-8.065,4.522-11.807,1.741-39.427-29.293-54.618-109.074-69.309-186.226-15.334-80.532-31.191-163.804-72.106-163.804-22.377,0-40.481,19.657-55.347,60.094-14.158,38.509-23.537,90.554-32.606,140.884-9.92,55.054-19.29,107.054-34.572,143.877-10.583,25.504-29.263,46.925-55.52,63.668-20.599,13.136-45.887,23.418-75.163,30.557C61.773,511.103,24.521,512,12.655,512Z" fill="#93a1a1"/><path d="M502.981,511.966h-493.963c-4.662,0-8.439-3.778-8.439-8.439v-495.088C0.579,3.778,4.356,0,9.018,0s8.439,3.778,8.439,8.439v486.649h485.524c4.662,0,8.439,3.778,8.439,8.439s-3.777,8.439-8.439,8.439Z"/></svg>
