<svg id="evbaiPU3emp1" xmlns="http://www.w3.org/2000/svg" xmlns:xlink="http://www.w3.org/1999/xlink" viewBox="0 0 15 15" shape-rendering="geometricPrecision" text-rendering="geometricPrecision"><rect width="2.103597" height="3.505796" rx="0" ry="0" transform="translate(6.477707 11.494204)" fill="#fdf6e3" stroke-width="0"/><rect width="2.103597" height="1.818668" rx="0" ry="0" transform="translate(6.477707 0.5)" fill="#fdf6e3" stroke-width="0"/><rect width="2.103597" height="2.283004" rx="0" ry="0" transform="translate(6.477706 4.815696)" fill="#fdf6e3" stroke-width="0"/><path d="M6.5,11.5v3.5m2-3.5v3.5M6,9.5h3m-2.5-9v2h2v-2m-4,0h6v4h1v3l-2,4h-4l-2-4v-3h1v-4Zm2,4v2c0,.55228.44772,1,1,1s1-.44772,1-1v-2h-2Z" fill="#fdf6e3" stroke="#000" stroke-linejoin="round"/><ellipse rx="1.5" ry="1.5" transform="matrix(2.5 0 0 2.5 4.1736 10.8487)" fill="#37ba2b" stroke="#000" stroke-width="0.2"/><path d="M1.090218,11.738258q.04459.04459,1.963882,2.61742l2.977705-3.943817" transform="translate(.4459-.889566)" fill="none" stroke="#fdf6e3" stroke-width="1.3" stroke-linecap="round" stroke-linejoin="round"/></svg>
