<svg id="el8UIqG05cz1" xmlns="http://www.w3.org/2000/svg" xmlns:xlink="http://www.w3.org/1999/xlink" viewBox="0 0 24 24" shape-rendering="geometricPrecision" text-rendering="geometricPrecision"><g transform="matrix(1.55 0 0 1.54714-6.612754-7.532642)"><g><path d="M10.5,17.5c0-.8284.6716-1.5,1.5-1.5h.0075c.8284,0,1.5.6716,1.5,1.5s-.6716,1.5-1.5,1.5L12,19c-.8284,0-1.5-.6716-1.5-1.5Z" clip-rule="evenodd" fill="#0031a3" fill-rule="evenodd"/><path d="M16.5121,12.487c-2.74-2.1155-6.2764-2.1155-9.01636,0-.32786.2532-.79886.1926-1.052-.1353-.25314-.3278-.19256-.7988.1353-1.0519c3.28002-2.53253,7.56976-2.53253,10.84976,0c.3279.2531.3884.7241.1353,1.0519-.2532.3279-.7241.3885-1.052.1353Z" clip-rule="evenodd" fill="#0031a3" fill-rule="evenodd"/><path d="M18.5417,10.0506c-3.972-3.06747-9.11126-3.06747-13.08325,0-.32783.2532-.79883.1927-1.05201-.13517s-.19265-.79883.13518-1.05201c4.51206-3.48456,10.40488-3.48456,14.91688,0c.3279.25318.3884.72418.1352,1.05201s-.7242.38837-1.052.13517Z" clip-rule="evenodd" fill="#0031a3" fill-rule="evenodd"/><path d="M15.1808,15.0409c-1.9346-1.4986-4.4338-1.4986-6.36846,0-.32746.2537-.79855.1938-1.0522-.1336s-.19382-.7986.13364-1.0522c2.47542-1.9175,5.73022-1.9175,8.20562,0c.3274.2536.3873.7247.1336,1.0522s-.7247.3873-1.0522.1336Z" clip-rule="evenodd" fill="#0031a3" fill-rule="evenodd"/></g></g></svg>
