<svg id="ev8mFLjRkOw1" xmlns="http://www.w3.org/2000/svg" xmlns:xlink="http://www.w3.org/1999/xlink" viewBox="0 0 920 258" shape-rendering="geometricPrecision" text-rendering="geometricPrecision"><g transform="matrix(.1 0 0-.1 2.458555 267.965882)" opacity="0.5"><path d="M543,2665c-7-12-47-15-233-17l-225-3-3-114c-3-107-12.34392-132.83679,20-132.83679c45,0,58.923762-3.194954,54,2.83679c18.627553,47.392984-14.94285,34.02473-51,45-13.46179,25.3919,1,44,22,44c24,0,24-2,20-50-4-38-1-50,9-50c9,0,14-13,15-37c6-192,8-183-35-183-57,0-56,2-58-231-2-240,3-265,58-319l36-35l157-6c162-5,180-10,221-54l25-27l5-646c4-466,8-653,17-667c6-11,25-33,43-50l31-30h3904c3685,0,3905,1,3922,17c49.687827,43.26586,19.275424,36.456565-24,13-27-13-469-15-3911-13L682,125l-27,25c-56,51-55,39-55,704c0,410-4,624-11,643-5,15-22,40-37,56l-26,27h622h622v-687c0-379,6-708,6-726c0-35,4-53.87579,35-53.87579h39L1851,378c0,136,1,454,1,707c1,253,3,468,6,477c4,17,137,18,2718,18h2714v-712c0-392,3-739,8-746c5-8,17-10.87579,33-8.87579h31.9347L7370,855l5,720l625,3l625,2-28-26c-16-14-32-37-38-51-5-14-9-280-9-638c0-532,7.95356-671.29426-21.74218-698-50.811397-38.923284-98.4-74.39195,15.2-24.99195C8563.45782,165.4161,8565,246,8570,850c5,693,3,663,58,705c23,16,48,20,188,25l162,5l36,35c53,52,59,86,58,324-2,228-1,226-59,226-18,0-33,3-34,8c0,4-2,53-5,110l-5,102h25c14,0,36,5,50,11c24,11,25,14,25,130l1,119h-229c-195,0-230,2-235,15s-44,15-293,13c-224-2-287-6-285-15c3-18-8-7-22,2-15.927,0-510.23355-4-582.94169-2C7395.49061,2663,7092,2650,4570,2650c-1567,0-2850,6-2864,6s-19.41785-2-29.41785,9c-28.99154.202172-519.086284-2.258626-533.58215,4-10.181571,4.395919-16.84484,2-16.84484,1-16,9-97.15516,10-291.15516,10-240,0-285-2-292-15Zm572-5c4-7-92-10-280-10s-284,3-280,10c4,6,108,10,280,10s276-4,280-10Zm7475,0c0-6-98-10-275-10s-275,4-275,10s98,10,275,10s275-4,275-10Zm-877-37c-8-3-13-25-13-59v-54h-3125-3125v46c0,25-4,53-9,62-8,16,190,17,3137,14c1731-2,3141-6,3135-9ZM152,2570c3-60,3-60-24-60s-28,1-28,60c0,57,1,60,24,60s24-4,28-60Zm388,0v-60h-185-185v60v60h185h185v-60Zm570-35v-95h-275-275v95v95h275h275v-95Zm298,86c9-6,13-32,11-94l-2-87h-133-134v95v95h123c67,0,128-4,135-9Zm6592-86v-95h-123c-82,0-127,4-135,12-12,12-17,134-6,162c5,13,27,16,135,16h129v-95Zm590,0v-95h-275-275v95v95h275h275v-95Zm380,35v-60h-180-180v60v60h180h180v-60Zm80,0v-60h-30-30v60v60h30h30v-60ZM540,2455v-35l-182,2c-167,3-183,5-186,21-9,45-3,47,188,47h180v-35Zm7160,16c0-10,7-21,15-25c8-3,15-10,15-16c0-7-946-10-3000-10-1992.986872.161312-2999.440897,2.521462-3000-10s1055-10,3145-10c2347,0,3145-3,3145-11c0-34,32-38,295-38c200,0,264,3,277,13c10,7,15,16,11,19-3,4,37,7,91,7c62,0,95-4,91-10-3-5,0-6,0-11-.750642-.537532,7.233264-7.438337,5-11c2.939002-5-6.042583-3,1-14-5.545834-45.966524,33.192292-18.799777,90-14c64,0,79-3,79-15c0-22-135-22-144,0-4,12-25,14-56,9-27-4-40-3-40,5c0,6,18,11,28,11c85.155496,2.176117,83.021266,7.309889-10,10-27,7-16,14,15,19c108.716221,1.388802,54.009709,15.413222-5,14-39,1-74-16-47-25c7-2,11-24,11-53-1.925896-46.320997-2.681389-128.040033,14.85183-45c4.003928,18.963221,97.14817,24.910875,89.14817,11-3-4-28-11-56-15-49-7-50-7-50-41v-45l106,2c53.137184,4.298195-242.038928,1.085641-658,0-417-1-767-6-780-11-33-13-67-48-74-76l-6-25h-2724c-2368,0-2724,2-2724,14c0,8-16,32-35,53l-35,38-662,3c-615,2-663,4-673,20-5,9-9.293394,24.031266-10,32-1.648924,18.595696-12.820701,17.282805-58,12-34-2-58.204761,1.122197-57,7c4.600273,22.443862,105.804342,28.819272,103.41102-19c12.652002-21.933817,15.182658,18.286232,11.58898,74-1,23,6,53,14,69l15,27h331c228-1,325-4,313-11-11-6-118-9-288-7-148,2-318.59222,33.418027-337.86312,26.16321C439.898063,2382.261779,578.763729,2348.986876,840,2350h259l19,25l20,25h275c173,0,492.54926-2,492.54926,10s-256.481992,10.538143-352.54926,10c-107,1-97.74835,1-118,10c0,10,0,10,0,10c6.965455,12,6.965455,12,8.25165,15c6.74835,16,4.494955,16.695123,6.74835,20c7,10.26635,354,15,3125,15c3059,0,3125,0,3125-19Zm1270-16v-35h-180-180v35v35h180h180v-35Zm80,0c0-32-2-35-30-35s-30,3-30,35s2,35,30,35s30-3,30-35Zm-7935-45c-4-6-108-10-280-10s-276,4-280,10c-4,7,92,10,280,10s284-3,280-10Zm7480,0c-7-11-407-12-685-1-140,6-89,8,258,9c287,1,431-1,427-8ZM250,2370c0-15-7-20-29-20-24,0-28,3-24,20c3,13,14,20,29,20c17,0,24-6,24-20Zm80,0c0-16-7-20-30-20-18,0-30,5-30,13c0,20,10,27,37,27c16,0,23-6,23-20Zm80,10c0-5-13-10-30-10-16,0-30,5-30,10c0,6,14,10,30,10c17,0,30-4,30-10Zm25-19c-5-17-15-21-46-21-21,0-39,5-39,10c0,6,18,10,40,10c31,0,40,4,40,17c0,9,3,14,6,10c3-3,3-15-1-26Zm8145,19c0-6-95-10-265-10s-265,4-265,10s95,10,265,10s265-4,265-10Zm290-10c0-16-7-20-30-20-32,0-33,1-24,24c9,24,54,21,54-4Zm80,0c0-16-7-20-30-20s-30,4-30,20s7,20,30,20s30-4,30-20ZM340,2315c0-12-15-15-75-15s-75,3-75,15s15,15,75,15s75-3,75-15Zm90,6c0-11-25-21-56-21-30,0-32,17-1,23c40,8,57,7,57-2Zm8370-16c0-11-11-15-40-15-51,0-53,17-2,23c20,2,38,4,40,5c1,1,2-5,2-13ZM430,2280c0-6-26-10-57-10-41,0-54,3-43,10c20,13,100,13,100,0Zm-210-4c0-2-9-6-20-9s-18-1-14,4c5,9,34,13,34,5Zm80-26c0-5-13-10-30-10-16,0-33.490529,6.397229-54-10s57.433547-11.630132,109-10c49,0,85-4,85-10s-43-9-109-8c-60,1-107,6-105,10c3,4,12,8,20,8s14,9,14,20c0,16,7,20,35,20c19,0,35-4,35-10Zm8526-19c-9-14-106-15-106-1c0,6,15,10,33,10c17,0,39,5,47,10c17,11,36-3,26-19Zm94,10c0-12,8-21,23-24c21-3,21-4,3-12-12-5-21-5-23,2-3,7-19,7-46,2-23-4-69-8-102-7-68,1-54,4,58,13c43.299914,3.547856,100.428908,4.164497,95,18s-29.918561,7.915064-48,7c-16,0-30,5-30,10c0,6,16,10,35,10c28,0,35-4,35-19Zm36-8c-10-10-19,5-10,18c6,11,8,11,12,0c2-7,1-15-2-18Zm-8746,7c0-5-7-10-16-10-8,0-12,5-9,10c3,6,10,10,16,10c5,0,9-4,9-10Zm153-67c-35-2-91-2-125,0-35,2-7,3,62,3s97-1,63-3Zm8590,0c-7-2-19-2-25,0-7,3-2,5,12,5s19-2,13-5Zm-1543-63c0-39-3-50-16-50-14,0-14,3-4,15c6.319608,4.067161,29.532911,14.637864,27.82424,28-4.430318,17.676974-54.099006-15.11127-57.82424-39-1.232631-7.904469-10-14-25-14-19,0-23,4-18,18c9,25,45,66.42665,61,66.42665c7,0,9,.57335,19,5.57335c5.366564,2.683282,4.58225,0,7.58225,0s5.41775-2,5.41775-30Zm-5690-10v-50l-807,2-808,3-3,48-3,47h810h811v-50Zm7323,0v-45l-806-3-807-2v50v50l807-2l806-3v-45Zm-7246,18c11-13,26-33,32-45c11-21,10-23-18-23-20,0-29,4-26,13c3,6-6,21-20,31s-25,25-25,32c0,22,34,16,57-8Zm-37-43c10-12,10-15-4-15-9,0-16,7-16,15s2,15,4,15s9-7,16-15Zm7280-220v-175l-34-38-34-37h-4400-4399l-26,30c-39,44-47,84-47,248v147h4470h4470v-175ZM1830,865c0-629-2-715-15-715s-15,86-15,715s2,715,15,715s15-86,15-715Zm5520,0c0-697,0-730-19-730-13,0-18,21-16,33c2,9,4,331,4,715c1,612,3,697,16,697s15-86,15-715Z" transform="translate(.54118-.34118)"/><path d="M5615,1545c-14-14-25-35-25-45c0-25,38-60,65-60c29,0,65,32,65,58c0,24-44,72-65,72-8,0-26-11-40-25Zm83-37c4-18-23-48-43-48-15,0-45,27-45,41c0,5,9,18,21,30c18,18,23,19,42,6c12-8,23-21,25-29Z"/><path d="M838,1534c-10-3-18-10-18-15s-9-18-21-30c-44-44,8-132,78-132c28,0,43,7,65,31c38,43,35,86-8,130-15,15-69,23-96,16Zm87-39c30-29,32-64,6-96-23-28-83-32-108-6-26,25-22,85,6,108c32,26,67,24,96-6Z"/><path d="M839,1489c-19-17-21-22-9-29c10-7,11-10,3-10-17,0-16-28,1-46c11-11,16-11,19-1c4,7,6,6,6-5c2-35,80,12,81,49c0,16-47,63-64,63-7,0-24-9-37-21Zm48-35c-3-3-12-4-19-1-8,3-5,6,6,6c11,1,17-2,13-5Z"/><path d="M1416,1533c-40-10-71-62-61-101c25-102,160-98,181,5c6,28,2,37-29,68-34,34-49,38-91,28Zm81-39c20-20,24-31,19-57-9-43-29-61-71-61s-62,18-71,61c-5,26-1,37,19,57c15,15,38,26,52,26s37-11,52-26Z"/><path d="M1410,1490c-20-18-22-23-10-30c13-8,12-10-2-10-12,0-15-5-11-17c11-29,30-43,58-43c44,0,76,48,50,74-8,8-15,19-15,25s-4,11-9,11-16,2-23,5c-8,3-25-4-38-15Zm45-30c3-5-1-10-10-10s-13,5-10,10c3,6,8,10,10,10s7-4,10-10Z"/><path d="M7665,1526c-67-29-72-112-10-155c50-34,99-18,133,45c16,29,3,71-30,99s-50,30-93,11Zm76-17c49-26,43-107-10-129-75-31-134,58-76,115c26,27,54,31,86,14Z"/><path d="M7689,1493c0-11-3-13-6-5-3,9-10,7-24-9-45-52,28-117,84-75c20,15,23,46,5,46-10,0-10,2-1,8c15,10-4,37-35,46-17,6-22,3-23-11Zm28-59c-3-3-12-4-19-1-8,3-5,6,6,6c11,1,17-2,13-5Z"/><path d="M8233,1530c-87-36-56-175,40-175c77,0,118,97,64,152-25,26-72,37-104,23Zm85-26c16-11,22-25,22-52c0-43-7-55-37-71-73-38-141,68-77,118c32,25,61,27,92,5Z"/><path d="M8253,1503c-7-2-13-11-13-18s-7-15-15-19c-35-13,4-76,47-76c42,0,73,52,50,86-7,10-47,35-54,33-2,0-9-3-15-6Zm34-69c-3-3-12-4-19-1-8,3-5,6,6,6c11,1,17-2,13-5Z"/><path d="M3825,1351c-43-19-68-59-68-107c0-40,4-51,31-76c47-42,103-39,148,6s48,101,7,145c-30,32-84,47-118,32Zm104-67c6-14,11-34,11-45c0-29-44-69-76-69-30,0-74,35-74,58c0,7,12-1,26-18c22-26,32-30,53-25c24,6,43,26,41,41-1,4,4,11,12,16c10,8,10,11,0,15-6,2-10,9-7,13c7,11-34,40-57,40-10,0-27-8-38-17-32.62395-49.271846-4.570348-46.52616,39-16c20,8,33,12,29,8s-3-16,2-26c7-12,6-22-5-32-8-8-11-17-8-21c4-3-4-6-16-6s-19,4-16,10-1,10-10,10c-10,0-15,7-13,18c7.013978,7.603739,16.278504,29.123543-6,35-19.665837-6.090139-36.927177-36.981227-27,0c4,12,22,30,40,39c41,20,83,9,100-28Z"/><path d="M5250,1353c-8-3-27-17-42-31-39-36-40-107-1-146c31-32,61-40,108-32c48,9,75,47,75,106c0,51-21,80-73,99-30,12-44,13-67,4Zm95-56c24-35,19-82-11-106-68-53-149,12-118,94c9,22,59,43,90,37c14-2,31-14,39-25Z"/><path d="M5244,1292c-25-21-24-60,2-91c24-28,45-27,78,4c22,21,26,31,21,55-6,27-15,35-37,31-5,0-8,4-8,9c0,16-33,11-56-8Zm65-21c15-9,7-51-10-51-6,0-7-4-4-10c11-18-5-11-33,15-26,24-26,25-7,39c23,18,35,19,54,7Z"/><path d="M5616,979c-32-25-34-61-4-89c28-26,62-26,88,2c26,29,25,59-3,86-29,27-47,28-81,1Zm81-35c3-9-4-25-16-37-23-23-44-18-65,17-16,25,27,60,55,45c11-6,23-17,26-25Z"/><path d="M822,894c-49-34-48-115,1-149c56-39,147,7,147,75s-92,114-148,74Zm108-26c43-46,10-118-54-118-69,0-99,95-42,132c23,16,75,8,96-14Z"/><path d="M834,859c-16-17-16-22-4-29c10-7,11-10,3-10-19,0-15-30,5-37c9-4,20-11,23-16c12-17,55,2,67,28c16,35,15,41-10,65-28,26-60,26-84-1Zm51-57c-3-3-11,0-18,7-9,10-8,11,6,5c10-3,15-9,12-12Z"/><path d="M1383,886c-61-53-21-156,62-156s123,102,61,155c-38,33-86,33-123,1Zm111-11c36-37,25-110-19-121-81-20-136,64-79,120c20,20,78,21,98,1Z"/><path d="M1385.39343,830C1380,819.593015,1381,817,1390,800c6-11,13.2-19,20-24s13.349548-6.981981,19-9c11.2-4,38-9,55,9c21,20,20,59-1,84-23,26-54,25-77-1m51-45c3.983608-5.737706.2-18.8-6.8-18.8-10-5-16.411058,11.551849-15,18.8c1.03529,5.317952,8.306584,6.562597,10.525285,7c3.38943,0,8.864773-1,11.274715-7Z" transform="translate(0-.2)"/><path d="M7639,881c-20-20-29-39-29-61c0-44,47-90,92-90c82,0,121,96,63,155-37,36-87,34-126-4Zm116-11c42-46,10-120-52-120-42,0-73,30-73,70c0,62,84,95,125,50Z"/><path d="M7675,870c-3-5-3-15,1-22s3-8-4-4-17,4-23,0c-8-4-7-9,2-15c10-6,10-9,2-9s-10-7-6-17c9-25,26-34,35-20c5,8,8,6,8-5s8-18,18-18c22,0,52,34,52,60c0,42-66,81-85,50Zm41-67c-10-10-19,5-10,18c6,11,8,11,12,0c2-7,1-15-2-18Z"/><path d="M8209,881c-37-37-38-79-3-120c61-73,179-9,153,82-20,70-98,89-150,38Zm113-8c27-24,24-87-4-107-51-36-118-5-118,54s77,93,122,53Z"/><path d="M8250,873c-25-10-40-37-27-45c9-6,9-8,0-8-18,0-16-15,3-35c14-13,19-14,25-3c7,10,9,9,9-4c0-23,21-23,48,1c27,23,29,61,5,62-11,0-13,3-6,6c10,3,10,8-1,19-15,15-31,16-56,7Zm33-64c-9-9-12-7-10,9c1,14,5,18,11,12c7-7,6-14-1-21Z"/><path d="M3825,611c-55-24-84-91-62-143c18-44,38-59,86-65c100-14,162,103,94,176-30,32-84,47-118,32Zm93-54c47-43,9-127-57-127-31,0-71,32-71,58c0,7,12-1,26-18c22-26,32-30,53-25c24,6,43,26,41,41-1,4,4,11,12,15c11,8,11,10,0,18-8,4-13,11-13,15c0,3-2,13-6,23-6,15-7,15-13-3-4-10-4-26,1-35c10-20-16-59-39-59-15,0-15,2-2,10c12,8,11,10-8,10-16,0-22,5-20,18c2,12-3,16-18,15-43-5-4,60,41,69c27,6,45-1,73-25Z"/><path d="M3816,551c-14-13-23-43.738555-13-46.738555c17-6,32,26.738555,42,35.738555c4.334113,3.900702,4.27985,3,15,3c14-4,40.27985-3,40.27985,8c0,22-61.27985,24-84.27985,0Z" transform="translate(2.72015-.73736)"/><path d="M5253,613c-38-8-73-59-73-106c1-85,83-132,160-92c37,19,50,43,50,94c0,71-64,120-137,104Zm90-55c26-31,22-82-9-107-15-12-37-21-49-21-37,0-75,37-75,73c1,75,85,110,133,55Z"/><path d="M5239,551c-30-34-1-111,41-111c30,0,67,43,64,75-3,28-21,48-36,39-4-3-8,0-8,5c0,17-43,11-61-8Zm70-20c12-8,12-14,1-40-7-17-14-31-17-31-2,0-15,10-29,23-41,38-3,78,45,48Z"/><path d="M850,483c-70-28-86-120-27-160c55-38,104-25,135,34c19,34,14,59-15,92-29,30-66,44-93,34Zm83-45c24-28,21-65-8-93-39-40-97-29-116,22-29,76,71,134,124,71Z"/><path d="M837,432c-21-23-22-59-2-78c12-12,15-12,16-2c0,7,4,4,9-7c6-13,9-15,9-5c1,12,3,12,10,2c6-11,14-8,35,13c30,30,32,38,11,59-8,8-15,19-15,25c0,18-56,12-73-7Zm50-48c-3-3-12-4-19-1-8,3-5,6,6,6c11,1,17-2,13-5Z"/><path d="M1420,483c-28-11-70-64-70-90c0-31,60-93,90-93c34,0,87,37,94,66c17,65-56,139-114,117Zm83-45c24-28,21-65-8-93-58-59-145,2-115,80c18,47,87,55,123,13Z"/><path d="M1413,431c3-14,1-18-9-14-22,8-22-41,1-63c10-11,15-11,18-1c3,7,6,5,6-5c2-42,74,4,74,46c0,34-25,56-63,56-27,0-31-3-27-19Zm44-47c-3-3-12-4-19-1-8,3-5,6,6,6c11,1,17-2,13-5Z"/><path d="M7672,479c-41-16-57-40-57-85c0-51,28-82,79-91c27-4,39,1,66,26c55,50,43,112-27,150-25,13-30,13-61,0Zm62-20c55-26,51-113-6-133-82-29-135,92-58,131c31,16,33,16,64,2Z"/><path d="M7673,431c3-12-1-18-11-17-27,2-25-30,3-58c31-31,45-32,73-7c43,37,16,101-42,101-23,0-27-4-23-19Zm47-45c0-11-19-15-25-6-3,5,1,10,9,10c9,0,16-2,16-4Z"/><path d="M8242,479c-41-16-57-40-57-85c0-51,28-82,79-91c27-4,39,0,64,23c43,40,46,85,10,126-27,30-63,40-96,27Zm65-23c30-10,45-62,27-97-22-44-65-51-108-18-30,24-34,58-10,98c17,28,42,33,91,17Z"/><path d="M8240,435c0-8-7-15-15-15-22,0-19-40,3-41c11,0,12-2,4-6-9-3-7-10,9-24c51-44,116,29,75,84-17,22-76,24-76,2Zm47-51c-3-3-12-4-19-1-8,3-5,6,6,6c11,1,17-2,13-5Z"/></g></svg>
