<svg id="easAKzw0lJm1" xmlns="http://www.w3.org/2000/svg" xmlns:xlink="http://www.w3.org/1999/xlink" viewBox="0 0 390 390" shape-rendering="geometricPrecision" text-rendering="geometricPrecision"><g><g><g><path d="M266.017,167.717c-7.502-7.498-19.699-7.498-27.2,0l-90.255,90.256c-11.101,11.1-29.162,11.1-40.268-.002-11.1-11.104-11.1-29.165.001-40.267l90.254-90.254c7.498-7.502,7.498-19.699,0-27.203L155.03,56.727c-7.498-7.497-19.701-7.497-27.199,0L37.572,146.984c-50.096,50.093-50.094,131.609.002,181.708c50.098,50.096,131.611,50.098,181.708,0l90.255-90.257c7.5-7.498,7.5-19.701,0-27.199l-43.52-43.519ZM233.236,282.096l-38.08-38.078l57.259-57.263l38.079,38.079-57.258,57.262Z" transform="translate(16.440479-5.267348)" fill="#586e75"/><path d="M389.664,26.142c-.786-1.802-2.762-2.767-4.664-2.28L266.086,54.138c-1.397.357-2.496,1.434-2.879,2.827-.382,1.388.014,2.873,1.031,3.892l26.297,26.318-60.823,39.4c-1.678,1.086-2.298,3.24-1.458,5.054.203.437.478.822.802,1.146c1.021,1.019,2.55,1.441,3.996,1.003L348.643,98.739c1.347-.404,2.38-1.489,2.727-2.854.344-1.364-.054-2.808-1.042-3.805L328.277,69.862l59.894-38.751c1.645-1.067,2.279-3.17,1.493-4.969Z" transform="translate(-16.44093 22.100385)" fill="#dcaa29"/></g></g></g></svg>
