<svg id="eMsJFXYGUhv1" xmlns="http://www.w3.org/2000/svg" xmlns:xlink="http://www.w3.org/1999/xlink" viewBox="0 0 30 300" shape-rendering="geometricPrecision" text-rendering="geometricPrecision"><g transform="translate(-97.268936 0)"><line x1="0" y1="-150" x2="0" y2="150" transform="translate(100.643146 150)" fill="none" stroke="#000" stroke-width="3"/><line x1="0" y1="-150" x2="0" y2="150" transform="translate(123.894731 150)" fill="none" stroke="#000" stroke-width="3"/><ellipse rx="3.731177" ry="3.628952" transform="matrix(2 0 0 2 112.19446 30)" stroke-width="0"/><ellipse rx="3.731177" ry="3.628952" transform="matrix(2 0 0 2 112.19446 60)" stroke-width="0"/><ellipse rx="3.731177" ry="3.628952" transform="matrix(2 0 0 2 112.19446 90)" stroke-width="0"/><ellipse rx="3.731177" ry="3.628952" transform="matrix(2 0 0 2 112.19446 120)" stroke-width="0"/><ellipse rx="3.731177" ry="3.628952" transform="matrix(2 0 0 2 112.19446 150)" stroke-width="0"/><ellipse rx="3.731177" ry="3.628952" transform="matrix(2 0 0 2 112.19446 180)" stroke-width="0"/><ellipse rx="3.731177" ry="3.628952" transform="matrix(2 0 0 2 112.19446 210)" stroke-width="0"/><ellipse rx="3.731177" ry="3.628952" transform="matrix(2 0 0 2 112.19446 240)" stroke-width="0"/><ellipse rx="3.731177" ry="3.628952" transform="matrix(2 0 0 2 112.19446 270)" stroke-width="0"/></g></svg>
