<svg id="evTLxk1eEAD1" xmlns="http://www.w3.org/2000/svg" xmlns:xlink="http://www.w3.org/1999/xlink" viewBox="0 0 1000 32" shape-rendering="geometricPrecision" text-rendering="geometricPrecision"><path d="M7,32c-3.86599,0-7-3.13401-7-7L0,7C0,3.13401,3.13401,0,7,0h18c3.86599,0,7,3.13401,7,7v18c0,3.86599-3.13401,7-7,7h-18Zm14.56503-2.90527c3.86599,0,7-3.13401,7-7v-12.23202c0-3.86599-3.13401-7-7-7h-11.11348c-3.86599,0-7,3.13401-7,7v12.23202c0,3.86599,3.13401,7,7,7h11.11348Zm4.45431-15.07745c-.49376,0-.89449-.4032-.89449-.9v-5.02632l-7.85796,7.90632l7.85796,7.90632v-5.02632c0-.4968.40073-.9.89449-.9s.8945.4032.8945.9v7.20072c-.00215.10944-.02361.21456-.05939.30528-.00429.01296-.00501.02664-.01002.03888-.00859.01944-.02433.03384-.03363.05328l-.00215.00504c-.03292.06624-.07442.12744-.12165.18144-.01431.01584-.01932.03672-.03435.05184-.0093.00936-.02218.01224-.03149.02088l.00072-.00072c-.06727.06408-.14527.11664-.23543.15912l-.02218.01368-.00123.00082.00409-.00154c-.00161.00068-.00321.00136-.00482.00204l-.00019.00012h-.00011c-.10528.04402-.22154.06912-.34266.06912h-7.15596c-.49376,0-.89449-.4032-.89449-.9s.40073-.9.89449-.9h4.99558l-7.85796-7.90632-7.85796,7.90632h4.99558c.49376,0,.89449.4032.89449.9s-.40073.9-.89449.9h-7.15668c-.10805-.00144-.21253-.02304-.30198-.05904-.0136-.00504-.02719-.00576-.04007-.0108-.02004-.00792-.03435-.02448-.05367-.03384l-.00501-.00216c-.06655-.03384-.12738-.0756-.18176-.12384-.01574-.01296-.03506-.018-.04938-.0324-.00859-.00864-.01145-.02088-.01932-.02952v.00072c-.06655-.07056-.12165-.15192-.1653-.24696l-.00787-.01296-.00215-.0036v-.0016c-.04303-.1052-.06727-.22144-.06727-.34256v-7.2c0-.4968.40073-.9.8945-.9s.89449.4032.89449.9v5.02632l7.85796-7.90632L6.87716,8.09168v5.02704c0,.4968-.40073.9-.89449.9s-.89449-.4032-.89449-.9v-7.20072c.00215-.10944.02361-.21456.05939-.30528.00501-.01296.00501-.02592.01002-.03816.00859-.02088.02433-.036.03435-.05616l.00215-.00504c.03363-.06624.07514-.12744.12308-.18216l.00143-.00144c.01861-.02304.03864-.04536.06011-.06696h-.00072c.06941-.06624.14956-.12168.24259-.16488l.01574-.00936.00358-.00216h.00234c.10521-.04329.22005-.06768.34043-.06768h7.15596c.49376,0,.89449.4032.89449.9s-.40073.9-.89449.9h-4.99629l7.85868,7.90632l7.85796-7.90632h-4.99558c-.49376,0-.89449-.4032-.89449-.9s.40073-.9.89449-.9h7.15668c.10949.00216.21325.02376.30341.05976.01288.00432.02576.00504.03864.01008.01932.00792.03435.02448.05367.03384l.00501.00216c.06583.03384.12738.07632.18176.12456l.00072.00072c.01503.01296.03435.018.04866.0324.00859.00864.01073.02016.01932.02952l-.00072-.00072c.06297.06768.11521.14472.15743.23544.00429.00936.01145.01584.01503.0252l.00143.00216v.00183c.03659.09353.0573.19464.06011.30129.00072.01512.00859.02736.00859.04248v7.2c0,.4968-.40073.9-.89449.9l.00069-.00216Z" transform="translate(483.999758 0)"/><line x1="367" y1="-0.194901" x2="-117" y2="-0.194901" transform="matrix(1 0 0-1 632.999758 11.805099)" fill="none" stroke="#000" stroke-width="3"/><line x1="367" y1="-0.194901" x2="-117" y2="-0.194901" transform="translate(632.999758 20.194901)" fill="none" stroke="#000" stroke-width="3"/><line x1="367" y1="-0.194901" x2="-117" y2="-0.194901" transform="matrix(.999999 0 0 1 117.000125 12.194901)" fill="none" stroke="#000" stroke-width="3"/><line x1="367" y1="-0.194901" x2="-117" y2="-0.194901" transform="matrix(.999999 0 0 1 117.000125 20.194901)" fill="none" stroke="#000" stroke-width="3"/></svg>
