<svg id="eHOJK6B3wGA1" xmlns="http://www.w3.org/2000/svg" xmlns:xlink="http://www.w3.org/1999/xlink" viewBox="0 0 15 15" shape-rendering="geometricPrecision" text-rendering="geometricPrecision"><rect width="1.82818" height="2.452437" rx="0" ry="0" transform="translate(6.663942 4.637338)" fill="#fdf6e3" stroke-width="0"/><rect width="1.82818" height="1.930143" rx="0" ry="0" transform="translate(6.663942 0.500001)" fill="#fdf6e3" stroke-width="0"/><rect width="1.82818" height="3.2283" rx="0" ry="0" transform="translate(6.663942 11.7717)" fill="#fdf6e3" stroke-width="0"/><path d="M6.5,11.5v3.5m2-3.5v3.5M6,9.5h3m-2.5-9v2h2v-2m-4,0h6v4h1v3l-2,4h-4l-2-4v-3h1v-4Zm2,4v2c0,.55228.44772,1,1,1s1-.44772,1-1v-2h-2Z" fill="#fdf6e3" stroke="#000"/><ellipse rx="1.5" ry="1.5" transform="matrix(2.5 0 0 2.5 4.1736 10.8487)" fill="#b61111" stroke="#000" stroke-width="0.2"/><line x1="-3.75" y1="0" x2="3.75" y2="0" transform="matrix(.541365 0.541365-.707107 0.707107 4.1736 10.8487)" fill="none" stroke="#fdf6e3" stroke-width="1.3" stroke-linecap="round" stroke-linejoin="round"/><line x1="-3.75" y1="0" x2="3.75" y2="0" transform="matrix(-.541365 0.541365-.707107-.707107 4.1736 10.8487)" fill="none" stroke="#fdf6e3" stroke-width="1.3" stroke-linecap="round" stroke-linejoin="round"/></svg>
