<svg id="eg3V1NHFfWE1" xmlns="http://www.w3.org/2000/svg" xmlns:xlink="http://www.w3.org/1999/xlink" viewBox="0 0 24 24" shape-rendering="geometricPrecision" text-rendering="geometricPrecision"><path d="M21.593,10.943c.584.585.584,1.53,0,2.116L18.71,15.95c-.39.39-1.03.39-1.42,0-.187228-.186845-.292444-.440491-.292444-.705s.105216-.518155.292444-.705c.510358-.510726,1.076977-.961942,1.689-1.345l.387-.242-.207-.206c-.734706.168828-1.486146.254036-2.24.254h-7.921c-.552285,0-1-.447715-1-1s.447715-1,1-1h7.921c.753854-.000036,1.505294.085172,2.24.254l.207-.206-.386-.241c-.612478-.384005-1.179433-.836228-1.69-1.348-.187228-.186845-.292444-.440491-.292444-.705s.105216-.518155.292444-.705c.39-.39,1.03-.39,1.42,0l2.883,2.893ZM14,16c-.552285,0-1,.447715-1,1v1.5c0,.276142-.223858.5-.5.5h-7c-.276142,0-.5-.223858-.5-.5v-13c0-.276142.223858-.5.5-.5h7c.276142,0,.5.223858.5.5v1.505c0,.552285.447715,1,1,1s1-.447715,1-1L15,5.5C15,4.119288,13.880712,3,12.5,3h-7C4.119288,3,3,4.119288,3,5.5v13C3,19.880712,4.119288,21,5.5,21h7c1.380712,0,2.5-1.119288,2.5-2.5v-1.5c0-.552285-.447715-1-1-1Z" clip-rule="evenodd" fill="#eee8d5" fill-rule="evenodd"/></svg>
